<svg width="51" height="17" viewBox="0 0 51 17" fill="none" xmlns="http://www.w3.org/2000/svg">
<path d="M4.37134 4.19207H6.15229L5.26181 2.01855L4.37134 4.19207Z" fill="#9AD9FF"/>
<path d="M26.4714 2.3286C26.3095 2.25098 26.0666 2.25098 25.8238 2.25098H24.2047V3.49299H25.8238C26.0666 3.49299 26.3095 3.49299 26.4714 3.41536C26.6333 3.33773 26.7142 3.10486 26.7142 2.87198C26.7952 2.56148 26.6333 2.40623 26.4714 2.3286Z" fill="#C5E1F5"/>
<path d="M43.7952 0V0.931506L43.3095 0H39.5048V0.931506L39.0191 0H33.8381C32.9476 0 32.219 0.155251 31.5714 0.465754V0H27.9286V0.465754C27.5238 0.155251 27.0381 0 26.3905 0H13.3571L12.4667 1.94064L11.5762 0H7.44762V0.931506L6.96191 0H3.48095L1.8619 3.6484L0 7.68493H1.8619H4.12857L4.61429 6.44292H5.74762L6.23333 7.68493H10.9286V6.75342L11.3333 7.68493H13.681L14.0857 6.75342V7.68493H25.3381V5.66667H25.5C25.6619 5.66667 25.6619 5.66667 25.6619 5.89954V7.60731H31.4905V7.14155C31.9762 7.37443 32.7048 7.60731 33.6762 7.60731H36.1048L36.5905 6.3653H37.7238L38.2095 7.60731H42.9048V6.44292L43.6333 7.60731H47.4381V0H43.7952ZM16.4333 6.52055H15.0571V2.25114L13.1143 6.52055H11.9L9.95714 2.25114V6.52055H7.20476L6.6381 5.35616H3.88571L3.4 6.59817H1.8619L4.29048 1.08676H6.31429L8.58095 6.28767V1.08676H10.7667L12.5476 4.81278L14.1667 1.08676H16.4333V6.52055ZM21.9381 2.25114H18.781V3.26027H21.8571V4.34703H18.781V5.43379H21.9381V6.59817H17.4048V1.08676H21.9381V2.25114ZM28.0095 4.50228C28.1714 4.81279 28.2524 5.04566 28.2524 5.51142V6.59817H26.8762V5.89954C26.8762 5.58904 26.8762 5.12329 26.6333 4.81278C26.3905 4.57991 26.1476 4.57991 25.6619 4.57991H24.2048V6.59817H22.8286V1.08676H25.9048C26.6333 1.08676 27.119 1.08676 27.5238 1.31963C27.9286 1.55251 28.1714 1.94064 28.1714 2.56164C28.1714 3.41552 27.6048 3.88128 27.2 4.03653C27.6048 4.11415 27.8476 4.34703 28.0095 4.50228ZM30.4381 6.52055H29.0619V1.00913H30.4381V6.52055ZM46.3857 6.52055H44.4429L41.8524 2.40639V6.52055H39.1L38.6143 5.35616H35.781L35.2952 6.59817H33.7571C33.1095 6.59817 32.3 6.44292 31.8143 5.97717C31.3286 5.51141 31.0857 4.89041 31.0857 3.88128C31.0857 3.10502 31.2476 2.32877 31.8143 1.70776C32.219 1.24201 32.9476 1.08676 33.8381 1.08676H35.1333V2.25114H33.8381C33.3524 2.25114 33.1095 2.32877 32.7857 2.56164C32.5429 2.79452 32.381 3.26027 32.381 3.80365C32.381 4.42466 32.4619 4.81279 32.7857 5.12329C33.0286 5.35616 33.3524 5.43379 33.7571 5.43379H34.3238L36.1857 1.16438H38.2095L40.4762 6.3653V1.16438H42.5L44.8476 4.96804V1.16438H46.2238V6.52055H46.3857Z" fill="#7FC5F9"/>
<path d="M36.2667 4.19207H38.1286L37.2382 2.01855L36.2667 4.19207Z" fill="#C5E1F5"/>
<path d="M22.5048 15.37V10.9453L20.4 13.1188L22.5048 15.37Z" fill="#C5E1F5"/>
<path d="M13.8429 11.4893V12.4984H16.8381V13.5851H13.8429V14.7495H17.1619L18.7 13.1194L17.2429 11.4893H13.8429Z" fill="#9AD9FF"/>
<path d="M25.5811 11.4893H23.8811V12.8865H25.6621C26.1478 12.8865 26.4716 12.6536 26.4716 12.1879C26.3906 11.7221 26.0668 11.4893 25.5811 11.4893Z" fill="#C5E1F5"/>
<path d="M50.5952 12.8086V9.31543H49.6237H47.1952C46.4666 9.31543 45.8999 9.47068 45.4952 9.78118V9.31543H41.7714C41.2047 9.31543 40.4761 9.47068 40.1523 9.78118V9.31543H33.5952V9.78118C33.1095 9.39306 32.219 9.31543 31.8142 9.31543H27.4428V9.78118C27.038 9.39306 26.0666 9.31543 25.5809 9.31543H20.7237L19.5904 10.4798L18.538 9.31543H11.2523V16.9227H18.3761L19.5095 15.7584L20.5618 16.9227H24.9333V15.1373H25.4999C26.0666 15.1373 26.7952 15.1373 27.3618 14.9045V17.0004H31.0047V14.9821H31.1666C31.4095 14.9821 31.4095 14.9821 31.4095 15.215V17.0004H42.419C43.1476 17.0004 43.8761 16.8451 44.2809 16.5346V17.0004H47.7618C48.4904 17.0004 49.219 16.9227 49.7047 16.6122C50.5142 16.1465 50.9999 15.2926 50.9999 14.2835C50.9999 13.7401 50.838 13.1967 50.5952 12.8086ZM25.4999 14.0506H23.8809V15.9136H21.2904L19.6714 14.1282L17.9714 15.9136H12.6285V10.4022H18.0523L19.6714 12.1876L21.3714 10.4022H25.6618C26.7142 10.4022 27.9285 10.7127 27.9285 12.1876C27.8476 13.7401 26.7142 14.0506 25.4999 14.0506ZM33.5952 13.7401C33.7571 13.973 33.838 14.2835 33.838 14.7492V15.836H32.4618V15.1373C32.4618 14.8268 32.4618 14.2835 32.219 14.0506C32.0571 13.8177 31.7333 13.8177 31.2476 13.8177H29.7904V15.836H28.4142V10.3246H31.4904C32.138 10.3246 32.7047 10.3246 33.1095 10.5574C33.5142 10.7903 33.838 11.1784 33.838 11.7994C33.838 12.6533 33.2714 13.1191 32.8666 13.2743C33.2714 13.4296 33.5142 13.5848 33.5952 13.7401ZM39.1809 11.4889H36.0237V12.4981H39.0999V13.5848H36.0237V14.6716H39.1809V15.836H34.6476V10.3246H39.1809V11.4889ZM42.5809 15.836H39.9904V14.6716H42.5809C42.8237 14.6716 42.9857 14.6716 43.1476 14.5163C43.2285 14.4387 43.3095 14.2835 43.3095 14.1282C43.3095 13.973 43.2285 13.8177 43.1476 13.7401C43.0666 13.6625 42.9047 13.5848 42.6618 13.5848C41.3666 13.5072 39.8285 13.5848 39.8285 11.8771C39.8285 11.1008 40.3142 10.2469 41.7714 10.2469H44.4428V11.5666H41.9333C41.6904 11.5666 41.5285 11.5666 41.3666 11.6442C41.2047 11.7218 41.2047 11.8771 41.2047 12.0323C41.2047 12.2652 41.3666 12.3428 41.5285 12.4205C41.6904 12.4981 41.8523 12.4981 42.0142 12.4981H42.7428C43.4714 12.4981 43.9571 12.6533 44.2809 12.9638C44.5238 13.1967 44.6857 13.5848 44.6857 14.1282C44.6857 15.2926 43.9571 15.836 42.5809 15.836ZM49.5428 15.2926C49.219 15.6031 48.6523 15.836 47.8428 15.836H45.2523V14.6716H47.8428C48.0857 14.6716 48.2476 14.6716 48.4095 14.5163C48.4904 14.4387 48.5714 14.2835 48.5714 14.1282C48.5714 13.973 48.4904 13.8177 48.4095 13.7401C48.3285 13.6625 48.1666 13.5848 47.9238 13.5848C46.6285 13.5072 45.0904 13.5848 45.0904 11.8771C45.0904 11.1008 45.5761 10.2469 47.0333 10.2469H49.7047V11.5666H47.2761C47.0333 11.5666 46.8714 11.5666 46.7095 11.6442C46.5476 11.7218 46.5476 11.8771 46.5476 12.0323C46.5476 12.2652 46.6285 12.3428 46.8714 12.4205C47.0333 12.4981 47.1952 12.4981 47.3571 12.4981H48.0857C48.8142 12.4981 49.2999 12.6533 49.6237 12.9638C49.7047 12.9638 49.7047 13.0415 49.7047 13.0415C49.9476 13.352 50.0285 13.7401 50.0285 14.1282C50.0285 14.594 49.8666 14.9821 49.5428 15.2926Z" fill="#7FC5F9"/>
<path d="M32.1381 11.644C31.9762 11.5664 31.7334 11.5664 31.4905 11.5664H29.8715V12.8084H31.4905C31.7334 12.8084 31.9762 12.8084 32.1381 12.7308C32.3 12.6532 32.381 12.4203 32.381 12.1874C32.4619 11.8769 32.3 11.7217 32.1381 11.644Z" fill="#C5E1F5"/>
<path d="M26.4715 2.3286C26.3096 2.25098 26.0667 2.25098 25.8239 2.25098H24.2048V3.49299H25.8239C26.0667 3.49299 26.3096 3.49299 26.4715 3.41536C26.6334 3.33773 26.7144 3.10486 26.7144 2.87198C26.7953 2.56148 26.6334 2.40623 26.4715 2.3286Z" fill="#C5E1F5"/>
<path d="M36.2666 4.19207H38.1285L37.238 2.01855L36.2666 4.19207Z" fill="#C5E1F5"/>
<path d="M22.5047 15.37V10.9453L20.3999 13.1188L22.5047 15.37Z" fill="#C5E1F5"/>
<path d="M25.581 11.4893H23.881V12.8865H25.6619C26.1476 12.8865 26.4715 12.6536 26.4715 12.1879C26.3905 11.7221 26.0667 11.4893 25.581 11.4893Z" fill="#C5E1F5"/>
<path d="M32.138 11.644C31.9761 11.5664 31.7332 11.5664 31.4904 11.5664H29.8713V12.8084H31.4904C31.7332 12.8084 31.9761 12.8084 32.138 12.7308C32.2999 12.6532 32.3809 12.4203 32.3809 12.1874C32.4618 11.8769 32.2999 11.7217 32.138 11.644Z" fill="#C5E1F5"/>
<path d="M25.0142 15.6807L23.8809 14.5163V15.836H21.2095L19.5904 14.0506L17.8095 15.836H12.4666V10.4022H17.8904L19.5904 12.1876L20.3999 11.2561L18.3761 9.31543H11.2523V16.9227H18.3761L19.5904 15.7584L20.6428 16.9227H25.0142V15.6807Z" fill="#9AD9FF"/>
<path d="M16.5952 7.60731L15.5429 6.52055H15.0571V6.05479L13.8429 4.89041L13.0333 6.52055H11.9L9.95714 2.25114V6.52055H7.20476L6.6381 5.35616H3.88571L3.31905 6.52055H1.8619L4.29048 1.08676H6.31429L8.58095 6.28767V1.08676H9.79524L8.6619 0H7.44762V0.931506L7.04286 0H3.48095L1.8619 3.6484L0 7.60731H1.8619H4.20952L4.69524 6.44292H5.82857L6.39524 7.60731H10.9286V6.6758L11.3333 7.60731H13.681L14.0857 6.6758V7.60731H16.5952Z" fill="#9AD9FF"/>
<path d="M12.8714 4.03693L11.5762 2.79492L12.5476 4.81319L12.8714 4.03693Z" fill="#9AD9FF"/>
<path d="M49.7048 16.5341C50.4334 16.0683 50.9191 15.2921 51.0001 14.4382L49.8668 13.3514C49.9477 13.5843 50.0287 13.8172 50.0287 14.1277C50.0287 14.5934 49.8668 14.9816 49.5429 15.2921C49.2191 15.6026 48.6525 15.8355 47.8429 15.8355H45.2525V14.6711H47.8429C48.0858 14.6711 48.2477 14.6711 48.4096 14.5158C48.4906 14.4382 48.5715 14.2829 48.5715 14.1277C48.5715 13.9724 48.4906 13.8172 48.4096 13.7396C48.3287 13.6619 48.1668 13.5843 47.9239 13.5843C46.6287 13.5067 45.0906 13.5843 45.0906 11.8766C45.0906 11.1003 45.5763 10.4017 46.7906 10.2464L45.9001 9.39253C45.7382 9.47016 45.6572 9.54779 45.5763 9.54779V9.08203H41.8525C41.2858 9.08203 40.5572 9.23728 40.2334 9.54779V9.08203H33.5953V9.54779C33.1096 9.15966 32.2191 9.08203 31.8144 9.08203H27.4429V9.54779C27.0382 9.15966 26.0668 9.08203 25.581 9.08203H20.7239L19.5906 10.2464L18.5382 9.08203H17.6477L20.0763 11.4108L21.2906 10.1688H25.581C26.6334 10.1688 27.8477 10.4793 27.8477 11.9542C27.8477 13.5067 26.7144 13.8172 25.5001 13.8172H23.881V14.9816L25.0953 16.146V14.9816H25.5001C26.0668 14.9816 26.7953 14.9816 27.362 14.7487V16.8446H31.0048V14.8263H31.1668C31.4096 14.8263 31.4096 14.8263 31.4096 15.0592V16.8446H42.4191C43.1477 16.8446 43.8763 16.6893 44.281 16.3788V16.8446H47.762C48.4096 16.9222 49.1382 16.8446 49.7048 16.5341ZM33.5953 13.7396C33.7572 13.9724 33.8382 14.2829 33.8382 14.7487V15.8355H32.462V15.1368C32.462 14.8263 32.462 14.2829 32.2191 14.0501C32.0572 13.8172 31.7334 13.8172 31.2477 13.8172H29.7906V15.8355H28.4144V10.324H31.4906C32.1382 10.324 32.7049 10.324 33.1096 10.5569C33.5144 10.7898 33.8382 11.1779 33.8382 11.7989C33.8382 12.6528 33.2715 13.1186 32.8668 13.2738C33.2715 13.4291 33.5144 13.5843 33.5953 13.7396ZM39.181 11.4884H36.0239V12.4976H39.1001V13.5843H36.0239V14.6711H39.181V15.8355H34.6477V10.324H39.181V11.4884ZM42.581 15.8355H39.9906V14.6711H42.581C42.8239 14.6711 42.9858 14.6711 43.1477 14.5158C43.2287 14.4382 43.3096 14.2829 43.3096 14.1277C43.3096 13.9724 43.2287 13.8172 43.1477 13.7396C43.0668 13.6619 42.9049 13.5843 42.662 13.5843C41.3668 13.5067 39.8287 13.5843 39.8287 11.8766C39.8287 11.1003 40.3144 10.2464 41.7715 10.2464H44.4429V11.5661H41.9334C41.6906 11.5661 41.5287 11.566 41.3668 11.6437C41.2048 11.7213 41.2048 11.8766 41.2048 12.0318C41.2048 12.2647 41.3668 12.3423 41.5287 12.4199C41.6906 12.4976 41.8525 12.4976 42.0144 12.4976H42.7429C43.4715 12.4976 43.9572 12.6528 44.281 12.9633C44.5239 13.1962 44.6858 13.5843 44.6858 14.1277C44.6858 15.2921 43.9572 15.8355 42.581 15.8355Z" fill="#C5E1F5"/>
<path d="M46.4668 12.0322C46.4668 12.265 46.5477 12.3427 46.7906 12.4203C46.9525 12.4979 47.1144 12.4979 47.2763 12.4979H48.0049C48.4906 12.4979 48.8144 12.5755 49.1382 12.7308L47.9239 11.5664H47.1954C46.9525 11.5664 46.7906 11.5664 46.6287 11.644C46.5477 11.7217 46.4668 11.8769 46.4668 12.0322Z" fill="#C5E1F5"/>
<path d="M43.6333 7.375L43.7952 7.60788H43.8762L43.6333 7.375Z" fill="#C5E1F5"/>
<path d="M39.1809 3.10547L40.5571 6.28812V4.4251L39.1809 3.10547Z" fill="#C5E1F5"/>
<path d="M25.338 5.66717H25.4999C25.6618 5.66717 25.6618 5.66717 25.6618 5.90004V7.6078H31.4904V7.14205C31.9761 7.37493 32.7046 7.6078 33.6761 7.6078H36.1046L36.5904 6.3658H37.7237L38.2094 7.6078H42.9046V6.83155L41.7713 5.74479V6.59867H39.0189L38.6142 5.35666H35.7808L35.2951 6.59867H33.757C33.1094 6.59867 32.2999 6.44342 31.8142 5.97767C31.3284 5.51191 31.0856 4.89091 31.0856 3.88178C31.0856 3.10552 31.2475 2.32927 31.8142 1.70826C32.2189 1.24251 32.9475 1.08726 33.838 1.08726H35.1332V2.25164H33.838C33.3523 2.25164 33.1094 2.32927 32.7856 2.56214C32.5427 2.79502 32.3808 3.26077 32.3808 3.80415C32.3808 4.42516 32.4618 4.81328 32.7856 5.12379C33.0284 5.35666 33.3523 5.43429 33.757 5.43429H34.3237L36.1856 1.16488H36.9951L35.8618 0.078125H33.757C32.8665 0.078125 32.138 0.233375 31.4904 0.543877V0.078125H27.9284V0.543877C27.5237 0.233375 27.038 0.078125 26.3904 0.078125H13.357L12.4665 2.01876L11.5761 0.078125H8.01416L9.14749 1.16488H10.7665L12.1427 4.03703L12.6284 4.50278L14.0856 1.08726H16.3523V6.59867H14.9761V2.32927L13.5999 5.43429L15.9475 7.68543H25.257L25.338 5.66717ZM29.0618 1.08726H30.438V6.59867H29.0618V1.08726ZM21.938 2.25164H18.7808V3.26077H21.857V4.34753H18.7808V5.43429H21.938V6.59867H17.4046V1.08726H21.938V2.25164ZM24.2046 6.52105H22.8284V1.00963H25.9046C26.6332 1.00963 27.1189 1.00963 27.5237 1.24251C27.9284 1.47539 28.1713 1.86351 28.1713 2.48452C28.1713 3.3384 27.6046 3.80415 27.1999 3.9594C27.5237 4.03703 27.7665 4.2699 27.8475 4.42516C28.0094 4.73566 28.0904 4.96854 28.0904 5.43429V6.52105H26.7142V5.82242C26.7142 5.51191 26.7142 5.04616 26.4713 4.73566C26.3904 4.58041 26.1475 4.58041 25.6618 4.58041H24.2046V6.52105Z" fill="#C5E1F5"/>
</svg>
