<svg width="40" height="40" viewBox="0 0 40 40" fill="none" xmlns="http://www.w3.org/2000/svg">
<circle cx="20" cy="20" r="15" fill="#2D2A2A"/>
<path d="M20.0003 3.63672C10.4047 3.63672 2.62598 11.4155 2.62598 21.011C2.62598 30.608 10.4047 38.3853 20.0003 38.3853C29.5958 38.3853 37.3745 30.608 37.3745 21.011C37.3745 11.4155 29.5951 3.63672 20.0003 3.63672ZM20.9965 10.6824C21.7846 9.7574 23.1174 9.0716 24.2167 9.02715C24.3571 10.3084 23.8406 11.5933 23.0786 12.5175C22.3138 13.4411 21.0628 14.1601 19.8344 14.0648C19.6693 12.8103 20.2881 11.5008 20.9965 10.6824ZM27.2526 28.1794C26.3404 29.5122 25.3949 30.8401 23.9055 30.8669C22.4408 30.8944 21.9695 29.9991 20.2966 29.9991C18.6223 29.9991 18.0988 30.8408 16.7124 30.8951C15.2752 30.9487 14.1801 29.4579 13.2608 28.1293C11.3805 25.4144 9.9461 20.4564 11.8751 17.1093C12.8304 15.4456 14.5421 14.3957 16.3984 14.3668C17.8123 14.3407 19.1451 15.3193 20.0073 15.3193C20.8716 15.3193 22.4916 14.1438 24.1955 14.3174C24.9081 14.3463 26.909 14.6039 28.1946 16.4842C28.0916 16.5491 25.8049 17.879 25.8324 20.6483C25.8627 23.9567 28.7343 25.0552 28.7675 25.0722C28.7407 25.147 28.3067 26.6392 27.2526 28.1794Z" fill="#E8E7E7"/>
</svg>
