<svg width="16" height="88" viewBox="0 0 16 88" fill="none" xmlns="http://www.w3.org/2000/svg">
<path d="M8 0.666667C5.05448 0.666667 2.66667 3.05448 2.66667 6C2.66667 8.94552 5.05448 11.3333 8 11.3333C10.9455 11.3333 13.3333 8.94552 13.3333 6C13.3333 3.05448 10.9455 0.666667 8 0.666667ZM7.29289 87.7071C7.68342 88.0976 8.31658 88.0976 8.70711 87.7071L15.0711 81.3431C15.4616 80.9526 15.4616 80.3195 15.0711 79.9289C14.6805 79.5384 14.0474 79.5384 13.6569 79.9289L8 85.5858L2.34315 79.9289C1.95262 79.5384 1.31946 79.5384 0.928932 79.9289C0.538408 80.3195 0.538408 80.9526 0.928932 81.3431L7.29289 87.7071ZM7 6L7 87H9L9 6H7Z" fill="#3B5998"/>
</svg>
