<svg width="25" height="23" viewBox="0 0 25 23" fill="none" xmlns="http://www.w3.org/2000/svg">
<path d="M7.29134 0.958333V2.875H5.20801V0.958333C5.20801 0.704167 5.31775 0.460412 5.51311 0.280689C5.70846 0.100967 5.97341 0 6.24967 0C6.52594 0 6.79089 0.100967 6.98624 0.280689C7.18159 0.460412 7.29134 0.704167 7.29134 0.958333Z" fill="#3B5998"/>
<path d="M19.7913 0.958333V2.875H17.708V0.958333C17.708 0.704167 17.8178 0.460412 18.0131 0.280689C18.2085 0.100967 18.4734 0 18.7497 0C19.0259 0 19.2909 0.100967 19.4862 0.280689C19.6816 0.460412 19.7913 0.704167 19.7913 0.958333Z" fill="#3B5998"/>
<path d="M20.8337 2.875H19.792V4.79167C19.792 5.04583 19.6822 5.28959 19.4869 5.46931C19.2915 5.64903 19.0266 5.75 18.7503 5.75C18.4741 5.75 18.2091 5.64903 18.0138 5.46931C17.8184 5.28959 17.7087 5.04583 17.7087 4.79167V2.875H7.29199V4.79167C7.29199 5.04583 7.18225 5.28959 6.98689 5.46931C6.79154 5.64903 6.52659 5.75 6.25033 5.75C5.97406 5.75 5.70911 5.64903 5.51376 5.46931C5.31841 5.28959 5.20866 5.04583 5.20866 4.79167V2.875H4.16699C3.33819 2.875 2.54333 3.1779 1.95728 3.71707C1.37123 4.25624 1.04199 4.9875 1.04199 5.75V19.1667C1.04199 19.9292 1.37123 20.6604 1.95728 21.1996C2.54333 21.7388 3.33819 22.0417 4.16699 22.0417H20.8337C21.6625 22.0417 22.4573 21.7388 23.0434 21.1996C23.6294 20.6604 23.9587 19.9292 23.9587 19.1667V5.75C23.9587 4.9875 23.6294 4.25624 23.0434 3.71707C22.4573 3.1779 21.6625 2.875 20.8337 2.875ZM7.29199 18.2083H5.20866C4.93239 18.2083 4.66744 18.1074 4.47209 17.9276C4.27674 17.7479 4.16699 17.5042 4.16699 17.25C4.16699 16.9958 4.27674 16.7521 4.47209 16.5724C4.66744 16.3926 4.93239 16.2917 5.20866 16.2917H7.29199C7.56826 16.2917 7.83321 16.3926 8.02856 16.5724C8.22391 16.7521 8.33366 16.9958 8.33366 17.25C8.33366 17.5042 8.22391 17.7479 8.02856 17.9276C7.83321 18.1074 7.56826 18.2083 7.29199 18.2083ZM7.29199 13.4167H5.20866C4.93239 13.4167 4.66744 13.3157 4.47209 13.136C4.27674 12.9563 4.16699 12.7125 4.16699 12.4583C4.16699 12.2042 4.27674 11.9604 4.47209 11.7807C4.66744 11.601 4.93239 11.5 5.20866 11.5H7.29199C7.56826 11.5 7.83321 11.601 8.02856 11.7807C8.22391 11.9604 8.33366 12.2042 8.33366 12.4583C8.33366 12.7125 8.22391 12.9563 8.02856 13.136C7.83321 13.3157 7.56826 13.4167 7.29199 13.4167ZM13.542 18.2083H11.4587C11.1824 18.2083 10.9174 18.1074 10.7221 17.9276C10.5267 17.7479 10.417 17.5042 10.417 17.25C10.417 16.9958 10.5267 16.7521 10.7221 16.5724C10.9174 16.3926 11.1824 16.2917 11.4587 16.2917H13.542C13.8183 16.2917 14.0832 16.3926 14.2786 16.5724C14.4739 16.7521 14.5837 16.9958 14.5837 17.25C14.5837 17.5042 14.4739 17.7479 14.2786 17.9276C14.0832 18.1074 13.8183 18.2083 13.542 18.2083ZM13.542 13.4167H11.4587C11.1824 13.4167 10.9174 13.3157 10.7221 13.136C10.5267 12.9563 10.417 12.7125 10.417 12.4583C10.417 12.2042 10.5267 11.9604 10.7221 11.7807C10.9174 11.601 11.1824 11.5 11.4587 11.5H13.542C13.8183 11.5 14.0832 11.601 14.2786 11.7807C14.4739 11.9604 14.5837 12.2042 14.5837 12.4583C14.5837 12.7125 14.4739 12.9563 14.2786 13.136C14.0832 13.3157 13.8183 13.4167 13.542 13.4167ZM19.792 18.2083H17.7087C17.4324 18.2083 17.1674 18.1074 16.9721 17.9276C16.7767 17.7479 16.667 17.5042 16.667 17.25C16.667 16.9958 16.7767 16.7521 16.9721 16.5724C17.1674 16.3926 17.4324 16.2917 17.7087 16.2917H19.792C20.0683 16.2917 20.3332 16.3926 20.5286 16.5724C20.7239 16.7521 20.8337 16.9958 20.8337 17.25C20.8337 17.5042 20.7239 17.7479 20.5286 17.9276C20.3332 18.1074 20.0683 18.2083 19.792 18.2083ZM19.792 13.4167H17.7087C17.4324 13.4167 17.1674 13.3157 16.9721 13.136C16.7767 12.9563 16.667 12.7125 16.667 12.4583C16.667 12.2042 16.7767 11.9604 16.9721 11.7807C17.1674 11.601 17.4324 11.5 17.7087 11.5H19.792C20.0683 11.5 20.3332 11.601 20.5286 11.7807C20.7239 11.9604 20.8337 12.2042 20.8337 12.4583C20.8337 12.7125 20.7239 12.9563 20.5286 13.136C20.3332 13.3157 20.0683 13.4167 19.792 13.4167ZM19.792 8.625H5.20866C4.93239 8.625 4.66744 8.52403 4.47209 8.34431C4.27674 8.16459 4.16699 7.92083 4.16699 7.66667C4.16699 7.4125 4.27674 7.16875 4.47209 6.98902C4.66744 6.8093 4.93239 6.70833 5.20866 6.70833H19.792C20.0683 6.70833 20.3332 6.8093 20.5286 6.98902C20.7239 7.16875 20.8337 7.4125 20.8337 7.66667C20.8337 7.92083 20.7239 8.16459 20.5286 8.34431C20.3332 8.52403 20.0683 8.625 19.792 8.625Z" fill="#3B5998"/>
</svg>
