<svg width="17" height="9" viewBox="0 0 17 9" fill="none" xmlns="http://www.w3.org/2000/svg">
<path d="M8.05831 5.48967L13.7415 0.362064C13.9701 0.157398 14.2974 0.0291948 14.6515 0.00553131C15.0056 -0.0181322 15.3578 0.0646715 15.6309 0.23581C15.904 0.406948 16.0757 0.652472 16.1085 0.918618C16.1413 1.18476 16.0325 1.44984 15.8059 1.6558L9.09055 7.71426C8.96431 7.82786 8.80643 7.91924 8.62807 7.98195C8.44971 8.04465 8.25521 8.07715 8.05832 8.07715C7.86142 8.07715 7.66692 8.04465 7.48856 7.98195C7.3102 7.91924 7.15233 7.82786 7.02609 7.71426L0.310737 1.6558C0.0830498 1.44993 -0.0266361 1.18453 0.00577545 0.917909C0.038187 0.651284 0.210043 0.405234 0.483593 0.233808C0.757143 0.0623827 1.11001 -0.0203981 1.46469 0.00364971C1.81937 0.0276976 2.14685 0.156609 2.37519 0.362064L8.05831 5.48967Z" fill="#0D42CA"/>
</svg>
