<svg width="46" height="46" viewBox="0 0 46 46" fill="none" xmlns="http://www.w3.org/2000/svg">
<path d="M23 45.5C10.5736 45.5 0.5 35.4264 0.5 23C0.5 10.5736 10.5736 0.5 23 0.5C35.4264 0.5 45.5 10.5736 45.5 23C45.5 35.4264 35.4264 45.5 23 45.5Z" fill="#DEF0FF"/>
<path d="M17.5312 34C17.7314 33.9999 17.9295 33.9648 18.1143 33.8969C18.299 33.829 18.4667 33.7295 18.6078 33.6042L29.5523 23.9486C29.6942 23.8241 29.8068 23.6761 29.8836 23.5131C29.9605 23.3501 30 23.1753 30 22.9988C30 22.8223 29.9605 22.6475 29.8836 22.4845C29.8068 22.3215 29.6942 22.1735 29.5523 22.0491L18.6078 12.3934C18.4664 12.2687 18.2986 12.1697 18.1138 12.1022C17.9291 12.0347 17.7312 12 17.5312 12C17.3313 12 17.1333 12.0347 16.9486 12.1022C16.7639 12.1697 16.5961 12.2687 16.4547 12.3934C16.3134 12.5181 16.2012 12.6662 16.1247 12.8291C16.0482 12.9921 16.0088 13.1668 16.0088 13.3431C16.0088 13.5195 16.0482 13.6942 16.1247 13.8571C16.2012 14.0201 16.3134 14.1682 16.4547 14.2929L26.3297 22.9988L16.4547 31.7048C16.2388 31.8917 16.0911 32.1314 16.0306 32.393C15.9702 32.6545 15.9997 32.9261 16.1154 33.1727C16.231 33.4194 16.4277 33.6299 16.6799 33.7773C16.9322 33.9247 17.2287 34.0023 17.5312 34Z" fill="#003198"/>
</svg>
