<svg width="40" height="40" viewBox="0 0 40 40" fill="none" xmlns="http://www.w3.org/2000/svg">
<g clip-path="url(#clip0_109_247)">
<path d="M20 40C31.0457 40 40 31.0457 40 20C40 8.9543 31.0457 0 20 0C8.9543 0 0 8.9543 0 20C0 31.0457 8.9543 40 20 40Z" fill="#E02F2F"/>
<path d="M23.75 7.49707C23.75 7.49707 18.01 7.49707 16.045 7.49707C12.52 7.49707 9.20125 9.97082 9.20125 13.0633C9.20125 16.2233 11.6038 18.6808 15.19 18.6808C15.44 18.6808 15.6825 18.6246 15.92 18.6071C15.685 19.0508 15.5225 19.5283 15.5225 20.0496C15.5225 20.9283 15.9938 21.6296 16.59 22.2108C16.1425 22.2108 15.7038 22.2171 15.2275 22.2171C10.8613 22.2183 7.5 24.9971 7.5 27.8808C7.5 30.7208 11.185 32.4996 15.5513 32.4996C20.53 32.4996 23.28 29.6721 23.28 26.8321C23.28 24.5558 22.6075 23.1908 20.5312 21.7183C19.82 21.2171 18.4613 19.9933 18.4613 19.2733C18.4613 18.4308 18.7013 18.0158 19.9713 17.0233C21.27 16.0083 22.1912 14.7971 22.1912 13.1346C22.1912 11.1583 21.3412 8.74707 19.6875 8.74707H22.5L23.75 7.49707ZM21.1637 26.3396C21.2238 26.6046 21.26 26.8758 21.26 27.1508C21.26 29.4458 19.7788 31.2396 15.535 31.2396C12.5163 31.2396 10.3375 29.3296 10.3375 27.0346C10.3375 24.7858 13.0413 22.9121 16.0612 22.9458C16.7638 22.9533 17.4213 23.0671 18.0163 23.2571C19.655 24.3983 20.83 25.0421 21.1637 26.3396ZM16.3287 17.7783C14.3025 17.7196 12.3762 15.5121 12.0275 12.8533C11.6787 10.1908 13.0375 8.15457 15.0625 8.21457C17.0875 8.27707 19.015 10.4121 19.3638 13.0721C19.7137 15.7321 18.355 17.8383 16.3287 17.7783Z" fill="white"/>
<path d="M30 17.4883V13.7383H27.5V17.4883H23.75V19.9883H27.5V23.7383H30V19.9883H33.75V17.4883H30Z" fill="white"/>
</g>
<defs>
<clipPath id="clip0_109_247">
<rect width="40" height="40" fill="white"/>
</clipPath>
</defs>
</svg>
