<svg width="128" height="128" viewBox="0 0 128 128" fill="none" xmlns="http://www.w3.org/2000/svg">
<g clip-path="url(#clip0_81_2735)">
<path d="M112.95 51.4C111.05 49.45 109.1 47.4 108.35 45.65C107.6 43.9 107.65 41.3 107.6 38.65C107.55 33.8 107.45 28.25 103.6 24.4C99.75 20.55 94.2 20.45 89.35 20.4C86.7 20.35 84 20.3 82.35 19.65C80.7 19 78.55 16.95 76.6 15.05C73.15 11.75 69.2 8 64 8C58.8 8 54.85 11.75 51.4 15.05C49.45 16.95 47.4 18.9 45.65 19.65C43.9 20.4 41.3 20.35 38.65 20.4C33.8 20.45 28.25 20.55 24.4 24.4C20.55 28.25 20.45 33.8 20.4 38.65C20.35 41.3 20.3 44 19.65 45.65C19 47.3 16.95 49.45 15.05 51.4C11.75 54.85 8 58.8 8 64C8 69.2 11.75 73.15 15.05 76.6C16.95 78.55 18.9 80.6 19.65 82.35C20.4 84.1 20.35 86.7 20.4 89.35C20.45 94.2 20.55 99.75 24.4 103.6C28.25 107.45 33.8 107.55 38.65 107.6C41.3 107.65 44 107.7 45.65 108.35C47.3 109 49.45 111.05 51.4 112.95C54.85 116.25 58.8 120 64 120C69.2 120 73.15 116.25 76.6 112.95C78.55 111.05 80.6 109.1 82.35 108.35C84.1 107.6 86.7 107.65 89.35 107.6C94.2 107.55 99.75 107.45 103.6 103.6C107.45 99.75 107.55 94.2 107.6 89.35C107.65 86.7 107.7 84 108.35 82.35C109 80.7 111.05 78.55 112.95 76.6C116.25 73.15 120 69.2 120 64C120 58.8 116.25 54.85 112.95 51.4ZM88.75 54.9L59.45 82.9C58.6925 83.6126 57.6899 84.0064 56.65 84C55.6254 84.0039 54.6393 83.6095 53.9 82.9L39.25 68.9C38.8437 68.5455 38.5132 68.1125 38.2785 67.627C38.0438 67.1415 37.9096 66.6136 37.8841 66.0749C37.8587 65.5363 37.9423 64.998 38.1302 64.4926C38.318 63.9871 38.6061 63.5248 38.9772 63.1335C39.3482 62.7422 39.7946 62.43 40.2894 62.2156C40.7842 62.0012 41.3172 61.8891 41.8564 61.886C42.3957 61.8828 42.93 61.9888 43.4272 62.1974C43.9245 62.406 44.3744 62.713 44.75 63.1L56.65 74.45L83.25 49.1C84.0278 48.4214 85.0377 48.0698 86.0687 48.1186C87.0997 48.1674 88.0719 48.6128 88.7822 49.3617C89.4924 50.1107 89.8856 51.1052 89.8796 52.1373C89.8736 53.1695 89.4689 54.1593 88.75 54.9Z" fill="#12AC33"/>
</g>
<defs>
<clipPath id="clip0_81_2735">
<rect width="128" height="128" fill="white"/>
</clipPath>
</defs>
</svg>
