<svg width="60" height="60" viewBox="0 0 60 60" fill="none" xmlns="http://www.w3.org/2000/svg">
<path fill-rule="evenodd" clip-rule="evenodd" d="M30 0C46.5574 0 60 13.4426 60 30C60 46.5574 46.5574 60 30 60C13.4426 60 0 46.5574 0 30C0 13.4426 13.4426 0 30 0ZM30 11.25C24.9079 11.25 24.2693 11.2716 22.2694 11.3629C20.2737 11.4539 18.9107 11.7709 17.7179 12.2344C16.485 12.7136 15.4393 13.3547 14.397 14.3971C13.3546 15.4395 12.7134 16.4851 12.2343 17.718C11.7708 18.9107 11.4539 20.2737 11.3627 22.2694C11.2716 24.2693 11.25 24.9079 11.25 30C11.25 35.0921 11.2716 35.7307 11.3627 37.7306C11.4539 39.7263 11.7708 41.0893 12.2343 42.282C12.7134 43.5149 13.3546 44.5605 14.397 45.603C15.4393 46.6454 16.485 47.2866 17.7179 47.7657C18.9107 48.2291 20.2737 48.5461 22.2694 48.6371C24.2693 48.7284 24.9079 48.75 30 48.75C35.0921 48.75 35.7307 48.7284 37.7306 48.6371C39.7263 48.5461 41.0893 48.2291 42.282 47.7657C43.5149 47.2866 44.5605 46.6454 45.603 45.603C46.6454 44.5605 47.2866 43.5149 47.7657 42.282C48.2291 41.0893 48.5461 39.7263 48.6371 37.7306C48.7284 35.7307 48.75 35.0921 48.75 30C48.75 24.9079 48.7284 24.2693 48.6371 22.2694C48.5461 20.2737 48.2291 18.9107 47.7657 17.718C47.2866 16.4851 46.6454 15.4395 45.603 14.3971C44.5605 13.3547 43.5149 12.7136 42.282 12.2344C41.0893 11.7709 39.7263 11.4539 37.7306 11.3629C35.7307 11.2716 35.0921 11.25 30 11.25ZM30 14.6284C35.0065 14.6284 35.5995 14.6475 37.5766 14.7377C39.4048 14.8212 40.3975 15.1266 41.0582 15.3833C41.9334 15.7234 42.558 16.1298 43.2141 16.7859C43.8703 17.442 44.2766 18.0667 44.6167 18.9418C44.8734 19.6025 45.1789 20.5952 45.2623 22.4234C45.3525 24.4005 45.3716 24.9935 45.3716 30C45.3716 35.0065 45.3525 35.5995 45.2623 37.5766C45.1789 39.4048 44.8734 40.3975 44.6167 41.0582C44.2766 41.9334 43.8703 42.558 43.2141 43.2141C42.558 43.8703 41.9334 44.2766 41.0582 44.6167C40.3975 44.8734 39.4048 45.1789 37.5766 45.2623C35.5998 45.3525 35.0068 45.3716 30 45.3716C24.9932 45.3716 24.4003 45.3525 22.4234 45.2623C20.5952 45.1789 19.6025 44.8734 18.9418 44.6167C18.0666 44.2766 17.442 43.8703 16.7858 43.2141C16.1297 42.558 15.7234 41.9334 15.3833 41.0582C15.1266 40.3975 14.8211 39.4048 14.7376 37.5766C14.6474 35.5995 14.6284 35.0065 14.6284 30C14.6284 24.9935 14.6474 24.4005 14.7376 22.4234C14.8211 20.5952 15.1266 19.6025 15.3833 18.9418C15.7234 18.0667 16.1297 17.442 16.7858 16.7859C17.442 16.1298 18.0666 15.7234 18.9418 15.3833C19.6025 15.1266 20.5952 14.8212 22.4234 14.7377C24.4005 14.6475 24.9935 14.6284 30 14.6284ZM30 20.3716C24.6824 20.3716 20.3716 24.6824 20.3716 30C20.3716 35.3176 24.6824 39.6284 30 39.6284C35.3176 39.6284 39.6284 35.3176 39.6284 30C39.6284 24.6824 35.3176 20.3716 30 20.3716ZM30 36.25C26.5482 36.25 23.75 33.4518 23.75 30C23.75 26.5482 26.5482 23.75 30 23.75C33.4518 23.75 36.25 26.5482 36.25 30C36.25 33.4518 33.4518 36.25 30 36.25ZM42.2589 19.9912C42.2589 21.2339 41.2514 22.2411 40.0087 22.2411C38.7662 22.2411 37.7589 21.2339 37.7589 19.9912C37.7589 18.7486 38.7662 17.7412 40.0087 17.7412C41.2514 17.7412 42.2589 18.7486 42.2589 19.9912Z" fill="url(#paint0_linear_81_2728)"/>
<defs>
<linearGradient id="paint0_linear_81_2728" x1="1.131e-06" y1="9" x2="45" y2="60" gradientUnits="userSpaceOnUse">
<stop stop-color="#5400E5"/>
<stop offset="1" stop-color="#C5029B"/>
</linearGradient>
</defs>
</svg>
