<svg width="265" height="61" viewBox="0 0 265 61" fill="none" xmlns="http://www.w3.org/2000/svg">
<path d="M83.0467 37.0968C80.9823 37.109 78.9286 36.7928 76.9583 36.1594C75.27 35.6692 73.6891 34.8499 72.3018 33.7461L74.048 29.7174C75.2686 30.6688 76.6316 31.4097 78.0836 31.9113C79.6649 32.4933 81.3321 32.7902 83.0117 32.7888C84.1807 32.826 85.3477 32.6642 86.4653 32.3102C87.2189 32.0766 87.892 31.6269 88.4055 31.0138C88.813 30.4868 89.0321 29.8321 89.0264 29.159C89.0393 28.7694 88.9656 28.3818 88.811 28.0259C88.6563 27.6699 88.4248 27.3549 88.1339 27.1047C87.4511 26.5401 86.6664 26.1199 85.8251 25.8682C84.8782 25.565 83.8305 25.2858 82.6819 25.0305C81.5333 24.7752 80.3821 24.4628 79.2283 24.0931C78.1261 23.7437 77.0653 23.2688 76.0658 22.6771C75.1161 22.1237 74.3158 21.3353 73.7375 20.3835C73.1158 19.2693 72.8131 17.9972 72.8644 16.7138C72.8673 15.2267 73.298 13.7736 74.1023 12.5375C74.9925 11.1874 76.2467 10.1338 77.7111 9.50596C79.3253 8.74808 81.3755 8.36914 83.8616 8.36914C85.4982 8.36954 87.1281 8.584 88.7121 9.00736C90.1966 9.38134 91.612 10.0011 92.903 10.8422L91.312 14.871C90.1362 14.1461 88.8699 13.5892 87.548 13.2156C86.3347 12.8684 85.0821 12.6873 83.8228 12.6771C82.6763 12.6415 81.533 12.8171 80.4468 13.1956C79.6896 13.4519 79.0219 13.9303 78.526 14.5718C78.1319 15.1201 77.9209 15.7848 77.9245 16.4665C77.9104 16.8544 77.9816 17.2405 78.1327 17.5962C78.2839 17.9518 78.5112 18.2679 78.7976 18.5207C79.4682 19.0885 80.2486 19.5032 81.0871 19.7373C82.0287 20.0325 83.0829 20.3117 84.2496 20.575C85.4137 20.8423 86.5779 21.1534 87.7032 21.5124C88.799 21.8537 89.8535 22.3221 90.8463 22.9085C91.7839 23.4627 92.5763 24.243 93.1552 25.1821C93.7716 26.2694 94.0744 27.5145 94.0283 28.7721C94.0351 30.2376 93.6236 31.673 92.8448 32.9005C91.9494 34.2536 90.6881 35.3075 89.2165 35.932C87.5868 36.7085 85.5301 37.0968 83.0467 37.0968Z" fill="#0D42CA"/>
<path d="M95.1973 36.6992L107.421 8.77734H112.388L124.65 36.6992H119.334L108.856 11.5296H110.874L100.358 36.6992H95.1973ZM100.824 30.2373L102.217 26.1687H116.85L118.208 30.2373H100.824Z" fill="#0D42CA"/>
<path d="M133.143 36.6992H128.099V8.77734H133.143V36.6992ZM147.575 24.7327H132.755V20.3051H147.582L147.575 24.7327ZM147.186 8.77734H152.192V36.6992H147.194L147.186 8.77734Z" fill="#0D42CA"/>
<path d="M155.685 36.6992L167.908 8.77734H172.875L185.141 36.6992H179.821L169.344 11.5296H171.365L160.846 36.6992H155.685ZM161.311 30.2373L162.708 26.1687H177.337L178.696 30.2373H161.311Z" fill="#0D42CA"/>
<path d="M193.677 36.6992V25.6501L194.841 28.8013L183.006 8.77734H188.361L197.907 24.9321H194.88L204.387 8.77734H209.354L197.557 28.8013L198.683 25.6501V36.6992H193.677Z" fill="#0D42CA"/>
<path d="M207.221 36.6992L219.444 8.77734H224.415L236.677 36.6992H231.361L220.884 11.5296H222.902L212.386 36.6992H207.221ZM212.847 30.2373L214.244 26.1687H228.873L230.232 30.2373H212.847Z" fill="#0D42CA"/>
<path d="M240.126 36.6992V8.77734H245.171V36.6992H240.126ZM244.588 30.1176L244.356 23.9748L258.558 8.77734H264.262L252.427 21.7131L249.633 24.8643L244.588 30.1176ZM259.062 36.6992L248.624 23.9748L252 20.1854L265 36.6992H259.062Z" fill="#0D42CA"/>
<path d="M75.4064 53.9826H74.4014V44.21H75.4064V53.9826ZM81.4521 49.4712H75.29V48.5658H81.4443L81.4521 49.4712ZM81.3551 44.21H82.3485V53.9826H81.3551V44.21Z" fill="#0D42CA"/>
<path d="M86.4425 53.0891H92.1584V53.9826H85.4375V44.21H91.9566V45.1035H86.4425V53.0891ZM86.3339 48.5777H91.359V49.4593H86.3339V48.5777Z" fill="#0D42CA"/>
<path d="M94.5215 53.9826V44.21H95.5265V53.0891H100.85V53.9826H94.5215Z" fill="#0D42CA"/>
<path d="M102.523 53.9821V44.2094H106.082C106.793 44.1924 107.5 44.3282 108.158 44.6083C108.705 44.8442 109.171 45.2429 109.497 45.7531C109.822 46.2964 109.986 46.9261 109.966 47.564C109.983 48.1916 109.82 48.8105 109.497 49.3431C109.171 49.8545 108.705 50.2555 108.158 50.4958C107.501 50.7779 106.793 50.9138 106.082 50.8947H103.078L103.528 50.4081V53.998L102.523 53.9821ZM103.528 50.4919L103.078 49.9893H106.062C106.835 50.0457 107.602 49.8196 108.228 49.351C108.476 49.1307 108.672 48.8546 108.801 48.5441C108.929 48.2336 108.987 47.897 108.969 47.5601C108.987 47.2195 108.93 46.8791 108.802 46.5647C108.674 46.2502 108.477 45.9699 108.228 45.7451C107.603 45.2732 106.835 45.0456 106.062 45.1029H103.086L103.536 44.6123L103.528 50.4919Z" fill="#0D42CA"/>
<path d="M112.137 53.9826V44.21H113.142V53.9826H112.137Z" fill="#0D42CA"/>
<path d="M116.24 53.9826V44.21H117.067L123.629 52.6982H123.194V44.21H124.183V53.9826H123.357L116.811 45.4944H117.245V53.9826H116.24Z" fill="#0D42CA"/>
<path d="M131.452 54.0664C130.766 54.0739 130.086 53.9481 129.446 53.6954C128.855 53.4597 128.315 53.1059 127.859 52.6543C127.408 52.2009 127.051 51.6581 126.811 51.0588C126.314 49.7864 126.314 48.3662 126.811 47.0939C127.052 46.4932 127.412 45.9501 127.866 45.4983C128.325 45.0458 128.868 44.6919 129.461 44.4573C130.101 44.2084 130.78 44.0839 131.464 44.0903C132.142 44.0819 132.816 44.1994 133.454 44.4373C134.047 44.6578 134.579 45.0217 135.006 45.4983L134.389 46.1924C134.021 45.8005 133.571 45.4991 133.074 45.3108C132.575 45.1321 132.05 45.043 131.522 45.0476C130.966 45.0414 130.415 45.1429 129.896 45.3468C129.415 45.5378 128.977 45.8268 128.607 46.1964C128.243 46.5632 127.952 46.9994 127.75 47.4808C127.346 48.5137 127.346 49.6668 127.75 50.6998C127.95 51.1845 128.241 51.6238 128.607 51.9922C128.977 52.3618 129.415 52.6508 129.896 52.8418C130.409 53.0459 130.956 53.1487 131.506 53.1449C132.034 53.1497 132.558 53.0648 133.058 52.8936C133.559 52.7095 134.013 52.4139 134.389 52.0281L134.96 52.8258C134.496 53.2413 133.957 53.5573 133.373 53.7552C132.753 53.9656 132.104 54.0706 131.452 54.0664ZM133.978 52.6982V49.1082H134.94V52.8258L133.978 52.6982Z" fill="#0D42CA"/>
<path d="M141.339 53.9821V44.2094H144.897C145.609 44.1924 146.316 44.3282 146.973 44.6083C147.519 44.8465 147.985 45.2446 148.312 45.7531C148.636 46.2971 148.799 46.9264 148.782 47.564C148.796 48.1913 148.633 48.8094 148.312 49.3431C147.984 49.8528 147.519 50.2533 146.973 50.4958C146.316 50.7779 145.609 50.9138 144.897 50.8947H141.894L142.344 50.4081V53.998L141.339 53.9821ZM142.344 50.4919L141.894 49.9893H144.866C145.639 50.0457 146.406 49.8196 147.031 49.351C147.28 49.1307 147.476 48.8546 147.605 48.5441C147.733 48.2336 147.791 47.897 147.773 47.5601C147.791 47.2195 147.734 46.8791 147.606 46.5647C147.477 46.2502 147.281 45.9699 147.031 45.7451C146.407 45.2732 145.639 45.0456 144.866 45.1029H141.89L142.34 44.6123L142.344 50.4919Z" fill="#0D42CA"/>
<path d="M151.96 53.0891H157.672V53.9826H150.955V44.21H157.474V45.1035H151.96V53.0891ZM151.851 48.5777H156.896V49.4593H151.851V48.5777Z" fill="#0D42CA"/>
<path d="M164.168 54.0653C163.487 54.0716 162.812 53.9458 162.177 53.6944C161.59 53.4601 161.054 53.1071 160.601 52.6563C160.149 52.2055 159.789 51.666 159.542 51.0697C159.046 49.8015 159.046 48.385 159.542 47.1168C159.789 46.5211 160.148 45.982 160.6 45.5313C161.052 45.0805 161.587 44.7272 162.173 44.4921C163.456 44.0026 164.868 44.0026 166.151 44.4921C166.74 44.7288 167.278 45.0826 167.734 45.5332C168.184 45.9865 168.539 46.5294 168.778 47.1287C169.28 48.4 169.28 49.8223 168.778 51.0936C168.538 51.6926 168.183 52.2354 167.734 52.6892C167.278 53.1398 166.74 53.4936 166.151 53.7303C165.516 53.9701 164.843 54.0838 164.168 54.0653ZM164.168 53.1439C164.71 53.1481 165.247 53.0452 165.751 52.8407C166.224 52.6493 166.653 52.3601 167.012 51.9911C167.37 51.6233 167.655 51.187 167.85 50.7067C168.249 49.6701 168.249 48.5163 167.85 47.4797C167.655 46.9995 167.37 46.5632 167.012 46.1953C166.653 45.8264 166.224 45.5372 165.751 45.3457C164.73 44.9468 163.602 44.9468 162.581 45.3457C162.106 45.5362 161.673 45.8234 161.309 46.1902C160.945 46.5569 160.657 46.9955 160.462 47.4797C160.065 48.514 160.065 49.6645 160.462 50.6987C160.653 51.1844 160.94 51.6243 161.304 51.9911C161.669 52.3604 162.104 52.6495 162.581 52.8407C163.086 53.0446 163.625 53.1475 164.168 53.1439Z" fill="#0D42CA"/>
<path d="M171.408 53.9821V44.2094H174.967C175.678 44.1924 176.385 44.3282 177.043 44.6083C177.589 44.8465 178.054 45.2446 178.381 45.7531C178.705 46.2971 178.869 46.9264 178.851 47.564C178.866 48.1913 178.702 48.8094 178.381 49.3431C178.053 49.8528 177.588 50.2533 177.043 50.4958C176.386 50.7779 175.678 50.9138 174.967 50.8947H171.963L172.413 50.4081V53.998L171.408 53.9821ZM172.413 50.4919L171.963 49.9893H174.939C175.712 50.0457 176.479 49.8196 177.105 49.351C177.354 49.1311 177.551 48.8552 177.68 48.5447C177.809 48.2342 177.867 47.8973 177.85 47.5601C177.868 47.2195 177.811 46.8791 177.683 46.5647C177.554 46.2502 177.358 45.9699 177.109 45.7451C176.484 45.2732 175.716 45.0456 174.943 45.1029H171.967L172.417 44.6123L172.413 50.4919Z" fill="#0D42CA"/>
<path d="M181.024 53.9826V44.21H182.029V53.0891H187.353V53.9826H181.024Z" fill="#0D42CA"/>
<path d="M190.134 53.0959H195.854V53.9895H189.129V44.2168H195.648V45.1103H190.134V53.0959ZM190.025 48.5846H195.05V49.4661H190.025V48.5846Z" fill="#0D42CA"/>
<path d="M59.2619 30.5426C59.2654 33.5233 58.8418 36.4883 58.0047 39.342C56.5711 44.2213 53.9696 48.653 50.4384 52.2311C46.9072 55.8092 42.5591 58.4195 37.7923 59.8229C33.0255 61.2263 27.9924 61.3779 23.1538 60.2639C18.3153 59.1499 13.8259 56.8059 10.0969 53.4465C6.37119 50.0888 3.52411 45.8243 1.81612 41.0432C0.108127 36.2621 -0.406232 31.1171 0.320101 26.0788C1.04643 21.0405 2.99026 16.2699 5.97375 12.2035C8.95723 8.13703 12.8851 4.90456 17.398 2.80183C21.9109 0.699103 26.8647 -0.206747 31.8062 0.167151C36.7477 0.54105 41.519 2.18276 45.6838 4.94208C49.8485 7.70141 53.2736 11.4902 55.6457 15.9619C58.0177 20.4336 59.2611 25.4454 59.2619 30.5386V30.5426Z" fill="url(#paint0_linear_107_1017)"/>
<path d="M47.6474 29.6333C47.969 29.8279 48.3051 29.9959 48.6525 30.1359C48.3188 29.9644 47.985 29.7969 47.6474 29.6333ZM19.2466 47.1084C19.0004 47.0689 18.7757 46.9411 18.6123 46.7476C18.449 46.5541 18.3575 46.3075 18.3541 46.0514C18.389 45.5607 18.7072 45.2935 19.3009 45.2775C19.4905 45.2673 19.6805 45.2794 19.8675 45.3134C21.1014 45.6006 22.3238 45.3453 23.55 45.2097L23.938 45.1579C23.9846 45.7921 24.1359 46.4981 24.1476 47.1044C24.1476 47.2001 23.938 47.3597 23.8061 47.3876C22.6694 47.6722 21.4821 47.6654 20.3486 47.3677C19.98 47.248 19.6036 47.1962 19.2466 47.1084ZM26.0141 48.1296C25.9442 47.5312 25.7618 46.7055 25.692 45.9796C25.6549 45.664 25.7357 45.3457 25.9178 45.0889C26.1 44.832 26.3701 44.6557 26.6737 44.5954C26.985 44.5252 27.3106 44.5843 27.5796 44.7599C27.8485 44.9355 28.039 45.2134 28.1095 45.5328C28.2868 46.3552 28.4164 47.1877 28.4975 48.0258C28.548 48.7438 27.9232 49.2225 27.2558 49.2664C26.5884 49.3102 26.1615 48.9592 26.0024 48.1296H26.0141ZM57.9228 39.2464C56.4893 44.1257 53.8878 48.5574 50.3566 52.1355C46.8253 55.7136 42.4772 58.3239 37.7105 59.7273C32.9437 61.1307 27.9106 61.2823 23.072 60.1683C18.2334 59.0543 13.7441 56.7103 10.015 53.3509C11.8825 54.3384 13.8144 55.1915 15.7969 55.9038C20.1338 57.4928 24.7044 58.3024 29.3085 58.2971C33.189 58.2971 36.3438 57.8596 38.7729 56.9848C41.2021 56.1099 42.9741 54.9252 44.0891 53.4307C44.5934 52.766 44.9964 52.0262 45.2843 51.2369C45.6165 50.314 45.7835 49.3369 45.7771 48.3529V48.2851C45.7771 48.0218 45.8896 46.0514 44.8768 44.9784C44.5315 44.6034 43.8446 44.1168 43.4411 44.1806L43.185 44.2245C42.471 44.3441 42.4748 44.3402 42.3274 43.6421C42.2274 43.0923 41.9815 42.5815 41.6169 42.1663C41.2522 41.751 40.7831 41.4474 40.2612 41.2889C39.7393 41.1304 39.185 41.1233 38.6594 41.2683C38.1338 41.4132 37.6574 41.7047 37.2828 42.1104C37.2169 42.1742 37.1586 42.238 37.0772 42.3258C35.556 41.3605 34.1591 41.528 32.8785 42.8723C32.2678 42.4085 31.5116 42.194 30.7559 42.2699C30.0831 42.333 29.4549 42.6431 28.9865 43.1435C28.7963 43.3469 28.6605 43.4108 28.4005 43.2392C28.0447 43.0184 27.6482 42.8761 27.236 42.8211C26.8239 42.7662 26.4051 42.7999 26.0063 42.9201C25.1332 43.1275 24.2446 43.2711 23.3598 43.4147C22.7817 43.5145 22.1957 43.5663 21.6253 43.6341C21.5246 43.656 21.4215 43.664 21.3187 43.6581C20.2128 43.4147 19.0991 43.1874 17.9971 42.9121C17.7966 42.8557 17.6247 42.7227 17.5165 42.5403C17.4083 42.3579 17.372 42.1399 17.415 41.9309C17.4159 41.832 17.4376 41.7346 17.4788 41.6452C17.5199 41.5559 17.5794 41.4767 17.6532 41.4134C17.7271 41.35 17.8134 41.3039 17.9063 41.2783C17.9991 41.2526 18.0963 41.248 18.1911 41.2648C18.8391 41.3086 19.4755 41.4921 20.1313 41.5679C20.6444 41.6534 21.1661 41.6708 21.6835 41.6198C23.2706 41.3844 24.846 41.0853 26.4254 40.822C27.0307 40.7143 27.3683 40.3114 27.2829 39.7929C27.1976 39.2743 26.7863 38.9951 26.1693 39.0829C24.5434 39.3541 22.9252 39.6413 21.2993 39.9165C21.1145 39.9504 20.9254 39.9504 20.7405 39.9165C19.3087 39.5815 17.8768 39.2464 16.4721 38.8754C16.1696 38.791 15.899 38.6144 15.696 38.3689C15.5774 38.2215 15.4993 38.0442 15.4697 37.8553C15.4402 37.6664 15.4603 37.4729 15.528 37.2947C15.5956 37.1165 15.7084 36.9602 15.8546 36.8419C16.0008 36.7235 16.1752 36.6475 16.3595 36.6217C16.6614 36.5805 16.9677 36.5873 17.2676 36.6417C17.6719 36.6923 18.0708 36.7818 18.4589 36.9089C19.7793 37.3521 21.2003 37.3675 22.5294 36.9528C23.4879 36.6975 24.4696 36.5539 25.4436 36.3226H25.5251C25.6605 36.3084 25.7905 36.2608 25.9041 36.1839C26.0178 36.1071 26.1117 36.0032 26.178 35.8811C26.2442 35.7589 26.2809 35.6222 26.2847 35.4824C26.2886 35.3426 26.2597 35.2039 26.2003 35.0781C26.0296 34.6792 25.6377 34.5077 25.0828 34.6273C23.9691 34.8587 22.8515 35.086 21.7417 35.3294L21.148 35.461C20.7424 35.5606 20.3196 35.5606 19.914 35.461C18.3618 35.086 16.8097 34.7669 15.2575 34.4159C15.1014 34.3929 14.9515 34.3376 14.8168 34.2533C14.6822 34.1689 14.5656 34.0574 14.4742 33.9253C14.3827 33.7933 14.3183 33.6435 14.2849 33.4851C14.2514 33.3267 14.2497 33.163 14.2796 33.0039C14.2925 32.9097 14.3227 32.819 14.3689 32.7366C14.4465 32.605 14.5823 32.5691 14.8423 32.6249C17.2764 33.178 19.7855 33.2927 22.2578 32.964C26.1241 32.4128 29.9555 31.6283 33.7322 30.6145C33.8208 30.5966 33.9101 30.5833 34 30.5747L34.1203 31.1012C34.3531 32.0625 34.5083 33.0437 34.8343 33.9731C35.1058 34.7313 35.6441 35.3572 36.3428 35.7272C37.0415 36.0971 37.8498 36.1842 38.6079 35.9712C39.3661 35.7582 40.0189 35.2606 40.4374 34.5768C40.856 33.893 41.0097 33.0726 40.8683 32.2779C40.5075 30.4909 40.0922 28.7119 39.615 26.9528C39.5903 26.8527 39.5565 26.7552 39.5141 26.6616C39.4394 26.4864 39.3456 26.3205 39.2347 26.167C38.7962 25.5288 38.7496 25.5288 38.7613 25.4729C38.8272 25.1379 40.5269 24.9265 42.1916 25.5048C43.0323 25.7934 43.8091 26.2503 44.4771 26.8491C45.1058 27.4514 45.7383 28.0457 46.363 28.652C46.757 29.0285 47.1904 29.3589 47.6552 29.6373C47.9768 29.8318 48.3128 29.9999 48.6602 30.1399C49.3432 30.4949 50.0145 30.8658 50.6664 31.2567C51.9166 32.0046 53.0793 32.8973 54.1316 33.9173C55.2268 34.9793 56.1877 36.1787 56.9915 37.4873C57.3378 38.0508 57.6451 38.6386 57.9112 39.2464H57.9228ZM34.3414 46.9249C34.2871 46.4143 34.097 45.5927 34.0349 44.8627C34.011 44.5462 34.1027 44.2318 34.2921 43.9811C34.4815 43.7303 34.7551 43.5611 35.0593 43.5065C35.3644 43.4505 35.6788 43.5158 35.9389 43.6891C36.199 43.8624 36.3853 44.1307 36.4602 44.4399C36.6414 45.2937 36.771 46.1583 36.8482 47.0286C36.8537 47.3479 36.7389 47.6571 36.5277 47.8913C36.3165 48.1255 36.0253 48.2666 35.7151 48.2851C35.0555 48.3409 34.5277 47.8942 34.3298 46.9249H34.3414ZM16.5186 9.03094C15.6895 10.404 15.2549 11.9901 15.2653 13.6061C15.2513 14.6353 15.4346 15.6573 15.8046 16.6137C16.2112 17.6277 16.8471 18.5274 17.6595 19.2384C19.4996 20.7902 21.6378 21.9252 23.9341 22.5691C26.5211 23.3668 29.4107 24.1327 32.603 24.8666C33.9741 25.1778 35.3361 25.5141 36.6891 25.8758L37.5195 26.6736C37.7334 26.8741 37.8903 27.1305 37.9735 27.4155C38.4004 29.1427 38.8001 30.8738 39.192 32.601C39.2719 32.9152 39.2371 33.2486 39.0941 33.5382C38.951 33.8278 38.7098 34.0534 38.4159 34.1726C38.1094 34.34 37.7532 34.3842 37.4168 34.2964C37.0804 34.2087 36.7878 33.9953 36.596 33.6979C36.4897 33.5025 36.4138 33.2912 36.3709 33.0717C36.0799 31.875 35.8044 30.6584 35.5211 29.4458C35.3154 28.5563 34.9352 28.3688 34.0931 28.6481C33.1667 28.9679 32.2235 29.2342 31.2682 29.4458C28.2181 30.0721 25.1604 30.6983 22.0832 31.2248L21.7223 31.2807C19.7057 31.5611 17.6569 31.4761 15.6688 31.0294C13.8329 30.8213 12.0335 30.3542 10.3216 29.6413C8.67489 28.9341 7.1365 27.9856 5.75433 26.8251C5.08126 26.0415 4.47376 25.2009 3.93829 24.3122C3.71322 23.9492 3.51144 23.5703 3.3213 23.1833C2.71508 21.9182 2.27157 20.5773 2.00195 19.1945C3.76476 14.6444 6.56871 10.5982 10.1762 7.39889C13.7836 4.19954 18.0883 1.94133 22.7252 0.815647C27.3622 -0.310032 32.1949 -0.269996 36.8136 0.93235C41.4323 2.1347 45.701 4.46391 49.2578 7.7226C46.825 6.45398 44.2727 5.44357 41.6405 4.70704C38.3139 3.75631 34.88 3.26008 31.4273 3.23117C27.6684 3.23117 24.5835 3.70584 22.1724 4.65519C21.6371 4.86547 21.1125 5.10378 20.6009 5.36919C19.1482 6.06542 17.8818 7.11396 16.9106 8.42464C16.7592 8.61212 16.6273 8.81554 16.507 9.02695L16.5186 9.03094ZM38.5711 46.7135C38.478 45.9716 38.2646 45.118 38.1831 44.392C38.1569 44.2188 38.1654 44.042 38.2082 43.8723C38.2509 43.7027 38.327 43.5438 38.4318 43.4055C38.5365 43.2672 38.6676 43.1524 38.8171 43.0682C38.9666 42.984 39.1313 42.9321 39.3011 42.9157C39.4708 42.8994 39.642 42.9189 39.8042 42.9731C39.9663 43.0273 40.1159 43.115 40.2438 43.2309C40.3717 43.3468 40.4752 43.4883 40.5479 43.6469C40.6206 43.8054 40.661 43.9775 40.6666 44.1527C40.7597 44.8746 40.8683 45.6006 40.9188 46.3306C40.9569 46.6484 40.8781 46.9694 40.6979 47.2306C40.5178 47.4918 40.2492 47.6744 39.9448 47.7426C39.6301 47.7792 39.3135 47.6935 39.0572 47.5023C38.8009 47.3111 38.6233 47.0284 38.5595 46.7095L38.5711 46.7135ZM30.2166 47.7386C30.104 47.0326 29.9178 46.2189 29.8557 45.5089C29.8316 45.3412 29.84 45.1702 29.8804 45.0058C29.9209 44.8415 29.9926 44.687 30.0915 44.5513C30.1903 44.4156 30.3143 44.3013 30.4563 44.2151C30.5984 44.1289 30.7556 44.0724 30.9189 44.049C31.0817 44.0249 31.2476 44.0345 31.4068 44.0773C31.566 44.1201 31.7152 44.1952 31.8457 44.2982C31.9762 44.4011 32.0854 44.5299 32.1668 44.6768C32.2482 44.8238 32.3002 44.986 32.3197 45.1539C32.4362 45.9078 32.6185 46.7494 32.6767 47.5232C32.6987 47.8181 32.6137 48.1108 32.4382 48.345C32.2626 48.5792 32.009 48.7383 31.726 48.7917C31.558 48.8348 31.383 48.8411 31.2125 48.8101C31.0419 48.7791 30.8797 48.7116 30.7362 48.6118C30.5927 48.5121 30.4712 48.3825 30.3797 48.2314C30.2882 48.0802 30.2286 47.911 30.2049 47.7346L30.2166 47.7386Z" fill="url(#paint1_linear_107_1017)"/>
<defs>
<linearGradient id="paint0_linear_107_1017" x1="-0.00775475" y1="30.5426" x2="59.2619" y2="30.5426" gradientUnits="userSpaceOnUse">
<stop stop-color="#3A83C5"/>
<stop offset="1" stop-color="#212E5F"/>
</linearGradient>
<linearGradient id="paint1_linear_107_1017" x1="1.99419" y1="30.447" x2="57.9112" y2="30.447" gradientUnits="userSpaceOnUse">
<stop stop-color="white"/>
<stop offset="1" stop-color="#5590CC"/>
</linearGradient>
</defs>
</svg>
