<svg width="198" height="44" viewBox="0 0 198 44" fill="none" xmlns="http://www.w3.org/2000/svg">
<path d="M62.025 26.5943C60.4832 26.603 58.9493 26.3763 57.4778 25.9223C56.2169 25.5709 55.0362 24.9835 54 24.1923L55.3042 21.3042C56.2158 21.9861 57.2338 22.5173 58.3183 22.8769C59.4993 23.2941 60.7445 23.5069 61.9989 23.506C62.872 23.5326 63.7436 23.4167 64.5783 23.1628C65.1411 22.9954 65.6438 22.673 66.0274 22.2335C66.3317 21.8557 66.4954 21.3863 66.4911 20.9038C66.5007 20.6245 66.4457 20.3467 66.3302 20.0915C66.2147 19.8364 66.0418 19.6105 65.8245 19.4312C65.3146 19.0264 64.7285 18.7252 64.1001 18.5447C63.393 18.3274 62.6105 18.1272 61.7526 17.9442C60.8947 17.7612 60.035 17.5372 59.1732 17.2722C58.35 17.0217 57.5578 16.6812 56.8112 16.2571C56.1019 15.8604 55.5042 15.2952 55.0723 14.6129C54.608 13.8141 54.3819 12.9022 54.4202 11.9821C54.4224 10.916 54.744 9.87436 55.3448 8.9882C56.0096 8.02034 56.9463 7.26503 58.04 6.81496C59.2457 6.27166 60.7769 6 62.6336 6C63.856 6.00029 65.0733 6.15403 66.2564 6.45752C67.3651 6.72563 68.4222 7.16989 69.3864 7.77291L68.1981 10.661C67.32 10.1414 66.3742 9.74219 65.3869 9.47432C64.4808 9.22541 63.5453 9.09561 62.6047 9.08829C61.7484 9.06278 60.8945 9.18867 60.0833 9.46002C59.5178 9.64376 59.0191 9.98668 58.6487 10.4466C58.3543 10.8396 58.1967 11.3161 58.1994 11.8048C58.1889 12.0829 58.2421 12.3597 58.355 12.6147C58.4679 12.8696 58.6376 13.0962 58.8515 13.2775C59.3524 13.6845 59.9353 13.9818 60.5615 14.1496C61.2647 14.3612 62.0521 14.5614 62.9235 14.7501C63.7929 14.9417 64.6624 15.1648 65.5028 15.4221C66.3213 15.6668 67.1088 16.0026 67.8504 16.423C68.5506 16.8203 69.1424 17.3797 69.5748 18.0529C70.0351 18.8323 70.2613 19.7249 70.2268 20.6265C70.232 21.6771 69.9246 22.7061 69.3429 23.586C68.6742 24.5561 67.7321 25.3116 66.6331 25.7593C65.4159 26.3159 63.8799 26.5943 62.025 26.5943Z" fill="#9AD9FF"/>
<path d="M71.0991 26.3086L80.2284 6.29199H83.938L93.0962 26.3086H89.1257L81.3007 8.26506H82.8077L74.9537 26.3086H71.0991ZM75.3015 21.6762L76.3419 18.7595H87.2709L88.2853 21.6762H75.3015Z" fill="#9AD9FF"/>
<path d="M99.4405 26.3086H95.6729V6.29199H99.4405V26.3086ZM110.219 17.7301H99.1507V14.556H110.225L110.219 17.7301ZM109.929 6.29199H113.668V26.3086H109.935L109.929 6.29199Z" fill="#9AD9FF"/>
<path d="M116.276 26.3086L125.405 6.29199H129.115L138.276 26.3086H134.302L126.477 8.26506H127.987L120.13 26.3086H116.276ZM120.478 21.6762L121.522 18.7595H132.448L133.462 21.6762H120.478Z" fill="#9AD9FF"/>
<path d="M144.652 26.3086V18.3878L145.521 20.6468L136.682 6.29199H140.681L147.811 17.873H145.55L152.651 6.29199H156.36L147.55 20.6468L148.39 18.3878V26.3086H144.652Z" fill="#9AD9FF"/>
<path d="M154.766 26.3086L163.896 6.29199H167.608L176.766 26.3086H172.796L164.971 8.26506H166.478L158.624 26.3086H154.766ZM158.969 21.6762L160.012 18.7595H170.938L171.952 21.6762H158.969Z" fill="#9AD9FF"/>
<path d="M179.343 26.3086V6.29199H183.111V26.3086H179.343ZM182.676 21.5904L182.502 17.1868L193.109 6.29199H197.37L188.53 15.5654L186.444 17.8244L182.676 21.5904ZM193.486 26.3086L185.69 17.1868L188.211 14.4702L197.92 26.3086H193.486Z" fill="#9AD9FF"/>
<path d="M56.3185 38.6992H55.5679V31.6934H56.3185V38.6992ZM60.8338 35.4651H56.2316V34.8159H60.828L60.8338 35.4651ZM60.7614 31.6934H61.5033V38.6992H60.7614V31.6934Z" fill="#9AD9FF"/>
<path d="M64.5609 38.0586H68.8299V38.6992H63.8103V31.6934H68.6792V32.3339H64.5609V38.0586ZM64.4798 34.8245H68.2329V35.4565H64.4798V34.8245Z" fill="#9AD9FF"/>
<path d="M70.595 38.6992V31.6934H71.3456V38.0586H75.3219V38.6992H70.595Z" fill="#9AD9FF"/>
<path d="M76.571 38.6992V31.6934H79.2287C79.76 31.6812 80.2882 31.7786 80.7792 31.9794C81.1879 32.1484 81.5361 32.4342 81.7791 32.8C82.0224 33.1895 82.1444 33.641 82.1297 34.0983C82.1425 34.5482 82.0206 34.9918 81.7791 35.3736C81.5356 35.7403 81.1877 36.0277 80.7792 36.2C80.2886 36.4022 79.7602 36.4996 79.2287 36.4859H76.9855L77.3217 36.1371V38.7107L76.571 38.6992ZM77.3217 36.1972L76.9855 35.8369H79.2142C79.7911 35.8773 80.3638 35.7152 80.8313 35.3793C81.017 35.2213 81.1634 35.0234 81.2594 34.8009C81.3554 34.5783 81.3983 34.3369 81.3849 34.0954C81.3988 33.8513 81.3562 33.6073 81.2603 33.3818C81.1644 33.1564 81.0177 32.9555 80.8313 32.7943C80.3649 32.456 79.7916 32.2928 79.2142 32.3339H76.9913L77.3275 31.9822L77.3217 36.1972Z" fill="#9AD9FF"/>
<path d="M83.7524 38.6992V31.6934H84.5031V38.6992H83.7524Z" fill="#9AD9FF"/>
<path d="M86.8159 38.6992V31.6934H87.4332L92.334 37.7784H92.0094V31.6934H92.7485V38.6992H92.1312L87.2419 32.6141H87.5665V38.6992H86.8159Z" fill="#9AD9FF"/>
<path d="M98.1767 38.7594C97.6647 38.7648 97.1563 38.6746 96.6784 38.4935C96.2371 38.3245 95.8342 38.0708 95.493 37.7471C95.1563 37.4221 94.8901 37.0329 94.7105 36.6033C94.3397 35.6912 94.3397 34.6731 94.7105 33.7609C94.8909 33.3303 95.1592 32.941 95.4988 32.6171C95.8416 32.2927 96.2466 32.039 96.6899 31.8708C97.1676 31.6924 97.6747 31.6032 98.1854 31.6077C98.6921 31.6017 99.1958 31.686 99.6722 31.8565C100.115 32.0146 100.512 32.2755 100.831 32.6171L100.371 33.1147C100.096 32.8337 99.7597 32.6177 99.3881 32.4827C99.0156 32.3546 98.6234 32.2908 98.2289 32.294C97.814 32.2896 97.4021 32.3623 97.0145 32.5085C96.6555 32.6454 96.3282 32.8526 96.0523 33.1176C95.7802 33.3805 95.5627 33.6932 95.4119 34.0383C95.1105 34.7788 95.1105 35.6055 95.4119 36.3459C95.5613 36.6935 95.779 37.0083 96.0523 37.2724C96.3282 37.5374 96.6555 37.7446 97.0145 37.8815C97.3981 38.0278 97.8061 38.1015 98.2173 38.0988C98.6111 38.1023 99.0028 38.0414 99.3765 37.9187C99.7502 37.7867 100.09 37.5748 100.371 37.2982L100.797 37.8701C100.45 38.1679 100.047 38.3944 99.6113 38.5363C99.1486 38.6871 98.664 38.7625 98.1767 38.7594ZM100.063 37.7786V35.205H100.782V37.8701L100.063 37.7786Z" fill="#9AD9FF"/>
<path d="M105.561 38.6992V31.6934H108.219C108.75 31.6812 109.278 31.7786 109.769 31.9794C110.177 32.1501 110.525 32.4355 110.769 32.8C111.011 33.19 111.133 33.6411 111.12 34.0983C111.131 34.5479 111.009 34.991 110.769 35.3736C110.524 35.739 110.177 36.0261 109.769 36.2C109.279 36.4022 108.75 36.4996 108.219 36.4859H105.976L106.312 36.1371V38.7107L105.561 38.6992ZM106.312 36.1972L105.976 35.8369H108.196C108.773 35.8773 109.345 35.7152 109.813 35.3793C109.999 35.2213 110.145 35.0234 110.241 34.8009C110.337 34.5783 110.38 34.3369 110.366 34.0954C110.38 33.8513 110.338 33.6073 110.242 33.3818C110.146 33.1564 109.999 32.9555 109.813 32.7943C109.346 32.456 108.773 32.2928 108.196 32.3339H105.973L106.309 31.9822L106.312 36.1972Z" fill="#9AD9FF"/>
<path d="M113.494 38.0586H117.76V38.6992H112.743V31.6934H117.612V32.3339H113.494V38.0586ZM113.412 34.8245H117.18V35.4565H113.412V34.8245Z" fill="#9AD9FF"/>
<path d="M122.611 38.7588C122.103 38.7634 121.599 38.6731 121.124 38.4929C120.686 38.3249 120.285 38.0719 119.947 37.7487C119.609 37.4255 119.34 37.0388 119.157 36.6113C118.786 35.7022 118.786 34.6867 119.157 33.7775C119.34 33.3505 119.609 32.9641 119.946 32.6409C120.284 32.3178 120.683 32.0645 121.122 31.896C122.08 31.5451 123.134 31.5451 124.092 31.896C124.532 32.0657 124.934 32.3193 125.275 32.6423C125.611 32.9673 125.876 33.3565 126.054 33.7861C126.429 34.6975 126.429 35.7171 126.054 36.6285C125.875 37.0579 125.61 37.447 125.275 37.7723C124.934 38.0953 124.532 38.349 124.092 38.5186C123.618 38.6906 123.116 38.7721 122.611 38.7588ZM122.611 38.0983C123.016 38.1013 123.417 38.0275 123.794 37.881C124.147 37.7437 124.467 37.5364 124.736 37.2719C125.003 37.0082 125.216 36.6954 125.362 36.3511C125.659 35.608 125.659 34.7809 125.362 34.0378C125.216 33.6935 125.003 33.3807 124.736 33.117C124.467 32.8525 124.147 32.6452 123.794 32.5079C123.031 32.222 122.189 32.222 121.426 32.5079C121.071 32.6445 120.748 32.8504 120.476 33.1133C120.204 33.3762 119.989 33.6906 119.843 34.0378C119.547 34.7792 119.547 35.604 119.843 36.3454C119.986 36.6935 120.2 37.0089 120.472 37.2719C120.745 37.5366 121.069 37.7438 121.426 37.881C121.803 38.0271 122.206 38.1009 122.611 38.0983Z" fill="#9AD9FF"/>
<path d="M128.019 38.6992V31.6934H130.677C131.208 31.6812 131.736 31.7786 132.227 31.9794C132.635 32.1501 132.983 32.4355 133.227 32.8C133.469 33.19 133.591 33.6411 133.578 34.0983C133.589 34.5479 133.467 34.991 133.227 35.3736C132.982 35.739 132.635 36.0261 132.227 36.2C131.737 36.4022 131.208 36.4996 130.677 36.4859H128.434L128.77 36.1371V38.7107L128.019 38.6992ZM128.77 36.1972L128.434 35.8369H130.657C131.233 35.8773 131.806 35.7152 132.274 35.3793C132.46 35.2216 132.607 35.0239 132.703 34.8013C132.8 34.5786 132.843 34.3372 132.83 34.0954C132.844 33.8513 132.802 33.6073 132.706 33.3818C132.61 33.1564 132.463 32.9555 132.277 32.7943C131.81 32.456 131.237 32.2928 130.66 32.3339H128.437L128.773 31.9822L128.77 36.1972Z" fill="#9AD9FF"/>
<path d="M135.201 38.6992V31.6934H135.952V38.0586H139.928V38.6992H135.201Z" fill="#9AD9FF"/>
<path d="M142.004 38.0635H146.276V38.7041H141.254V31.6982H146.123V32.3388H142.004V38.0635ZM141.923 34.8294H145.676V35.4614H141.923V34.8294Z" fill="#9AD9FF"/>
<path d="M44.2608 21.895C44.2635 24.0318 43.9471 26.1573 43.3218 28.2031C42.2512 31.701 40.3082 34.878 37.6708 37.4431C35.0335 40.0082 31.786 41.8794 28.2259 42.8855C24.6657 43.8915 20.9066 44.0002 17.2929 43.2017C13.6791 42.4031 10.3261 40.7227 7.54104 38.3144C4.75844 35.9073 2.63204 32.8502 1.3564 29.4227C0.0807566 25.9952 -0.303402 22.3068 0.239073 18.695C0.781548 15.0832 2.23333 11.6632 4.4616 8.74807C6.68987 5.83292 9.62348 3.51562 12.994 2.00822C16.3645 0.500813 20.0644 -0.148573 23.755 0.119468C27.4457 0.387508 31.0092 1.56442 34.1198 3.54252C37.2303 5.52063 39.7883 8.23677 41.56 11.4424C43.3316 14.6481 44.2602 18.2409 44.2608 21.8922V21.895Z" fill="url(#paint0_linear_78_1880)"/>
<path d="M35.5866 21.2435C35.8268 21.383 36.0778 21.5035 36.3373 21.6038C36.088 21.4809 35.8388 21.3608 35.5866 21.2435ZM14.3749 33.7711C14.1911 33.7427 14.0233 33.6511 13.9013 33.5124C13.7793 33.3737 13.7109 33.1969 13.7084 33.0133C13.7344 32.6616 13.9721 32.47 14.4155 32.4585C14.5571 32.4512 14.6991 32.4599 14.8387 32.4843C15.7603 32.6902 16.6732 32.5072 17.589 32.4099L17.8788 32.3728C17.9136 32.8274 18.0266 33.3336 18.0353 33.7682C18.0353 33.8368 17.8788 33.9512 17.7803 33.9712C16.9313 34.1753 16.0446 34.1704 15.198 33.9569C14.9227 33.8712 14.6416 33.834 14.3749 33.7711ZM19.4294 34.5031C19.3772 34.0742 19.241 33.4823 19.1888 32.9618C19.1611 32.7356 19.2214 32.5074 19.3575 32.3233C19.4936 32.1392 19.6953 32.0128 19.922 31.9696C20.1545 31.9192 20.3977 31.9616 20.5986 32.0875C20.7995 32.2134 20.9417 32.4126 20.9944 32.6416C21.1268 33.2311 21.2236 33.8279 21.2842 34.4288C21.3219 34.9435 20.8553 35.2866 20.3568 35.3181C19.8583 35.3495 19.5395 35.0979 19.4207 34.5031H19.4294ZM43.261 28.135C42.1903 31.6328 40.2474 34.8098 37.61 37.3749C34.9726 39.94 31.7252 41.8112 28.165 42.8173C24.6049 43.8234 20.8458 43.9321 17.232 43.1335C13.6183 42.3349 10.2653 40.6545 7.4802 38.2462C8.87496 38.9541 10.3179 39.5656 11.7985 40.0763C15.0376 41.2154 18.4512 41.7958 21.8899 41.792C24.7881 41.792 27.1443 41.4784 28.9585 40.8512C30.7728 40.224 32.0963 39.3748 32.929 38.3034C33.3057 37.8269 33.6067 37.2966 33.8217 36.7307C34.0698 36.0691 34.1945 35.3687 34.1897 34.6632V34.6146C34.1897 34.4259 34.2738 33.0133 33.5173 32.2441C33.2594 31.9753 32.7464 31.6264 32.445 31.6722L32.2537 31.7036C31.7205 31.7894 31.7234 31.7866 31.6133 31.2862C31.5385 30.892 31.3549 30.5258 31.0826 30.2281C30.8103 29.9305 30.4599 29.7128 30.0701 29.5992C29.6803 29.4856 29.2663 29.4805 28.8738 29.5844C28.4812 29.6883 28.1254 29.8972 27.8456 30.1881C27.7964 30.2338 27.7529 30.2796 27.692 30.3425C26.556 29.6505 25.5126 29.7706 24.5562 30.7343C24.1001 30.4018 23.5353 30.248 22.9709 30.3025C22.4684 30.3476 21.9992 30.57 21.6493 30.9287C21.5073 31.0746 21.4059 31.1203 21.2117 30.9973C20.946 30.8391 20.6498 30.737 20.342 30.6976C20.0342 30.6582 19.7214 30.6824 19.4236 30.7686C18.7715 30.9173 18.1078 31.0202 17.447 31.1232C17.0152 31.1946 16.5776 31.2318 16.1515 31.2804C16.0763 31.2961 15.9993 31.3019 15.9226 31.2976C15.0966 31.1232 14.2648 30.9602 13.4417 30.7629C13.292 30.7224 13.1636 30.6271 13.0828 30.4963C13.002 30.3655 12.9749 30.2092 13.007 30.0594C13.0076 29.9885 13.0239 29.9187 13.0546 29.8546C13.0853 29.7906 13.1298 29.7338 13.1849 29.6884C13.2401 29.643 13.3045 29.61 13.3739 29.5916C13.4433 29.5732 13.5159 29.5699 13.5866 29.5819C14.0706 29.6133 14.5459 29.7449 15.0357 29.7992C15.4189 29.8605 15.8086 29.873 16.195 29.8364C17.3803 29.6677 18.557 29.4532 19.7366 29.2645C20.1887 29.1873 20.4408 28.8984 20.3771 28.5267C20.3133 28.155 20.0061 27.9548 19.5453 28.0177C18.3309 28.2122 17.1224 28.418 15.9081 28.6154C15.7701 28.6396 15.6288 28.6396 15.4907 28.6154C14.4213 28.3752 13.3519 28.135 12.3028 27.869C12.0768 27.8085 11.8747 27.6819 11.7231 27.5059C11.6345 27.4002 11.5762 27.2731 11.5541 27.1377C11.5321 27.0023 11.5471 26.8636 11.5976 26.7358C11.6482 26.6081 11.7324 26.496 11.8416 26.4112C11.9508 26.3264 12.081 26.2719 12.2187 26.2534C12.4442 26.2239 12.6729 26.2287 12.8969 26.2677C13.1989 26.304 13.4968 26.3681 13.7866 26.4593C14.7728 26.777 15.8341 26.788 16.8268 26.4907C17.5426 26.3077 18.2759 26.2048 19.0033 26.0389H19.0642C19.1653 26.0287 19.2624 25.9946 19.3472 25.9395C19.4321 25.8844 19.5023 25.81 19.5518 25.7224C19.6013 25.6349 19.6286 25.5368 19.6315 25.4366C19.6344 25.3364 19.6128 25.237 19.5685 25.1468C19.4409 24.8608 19.1482 24.7378 18.7338 24.8236C17.902 24.9895 17.0673 25.1525 16.2385 25.3269L15.795 25.4213C15.4921 25.4927 15.1764 25.4927 14.8734 25.4213C13.7142 25.1525 12.5549 24.9237 11.3956 24.6721C11.2791 24.6556 11.1671 24.6159 11.0665 24.5555C10.9659 24.495 10.8789 24.415 10.8106 24.3204C10.7423 24.2257 10.6942 24.1184 10.6692 24.0048C10.6442 23.8913 10.6429 23.7739 10.6653 23.6598C10.6749 23.5923 10.6975 23.5273 10.7319 23.4682C10.7899 23.3739 10.8913 23.3481 11.0855 23.3882C12.9035 23.7846 14.7774 23.8668 16.6239 23.6312C19.5116 23.2361 22.3731 22.6737 25.1938 21.947C25.2599 21.9341 25.3267 21.9245 25.3938 21.9184L25.4836 22.2958C25.6575 22.985 25.7734 23.6884 26.0169 24.3547C26.2197 24.8982 26.6217 25.3469 27.1435 25.6121C27.6654 25.8773 28.2691 25.9398 28.8353 25.7871C29.4016 25.6344 29.8891 25.2776 30.2017 24.7874C30.5143 24.2972 30.6291 23.7091 30.5235 23.1394C30.254 21.8583 29.9439 20.583 29.5874 19.3219C29.569 19.2502 29.5438 19.1803 29.5121 19.1132C29.4563 18.9876 29.3863 18.8687 29.3034 18.7586C28.9759 18.3011 28.9411 18.3011 28.9498 18.261C28.9991 18.0208 30.2685 17.8693 31.5118 18.2839C32.1397 18.4908 32.7199 18.8183 33.2188 19.2476C33.6883 19.6794 34.1607 20.1054 34.6273 20.5401C34.9216 20.81 35.2453 21.0468 35.5924 21.2464C35.8326 21.3858 36.0836 21.5063 36.3431 21.6067C36.8531 21.8612 37.3545 22.1271 37.8414 22.4073C38.7751 22.9434 39.6435 23.5834 40.4295 24.3146C41.2474 25.076 41.9651 25.9358 42.5654 26.8739C42.8241 27.2779 43.0536 27.6992 43.2523 28.135H43.261ZM25.6488 33.6395C25.6082 33.2735 25.4662 32.6845 25.4199 32.1612C25.402 31.9342 25.4705 31.7089 25.612 31.5291C25.7534 31.3494 25.9577 31.2281 26.185 31.1889C26.4129 31.1488 26.6477 31.1956 26.8419 31.3198C27.0361 31.444 27.1753 31.6364 27.2312 31.8581C27.3666 32.4702 27.4634 33.09 27.521 33.7139C27.5252 33.9428 27.4394 34.1644 27.2816 34.3323C27.1239 34.5002 26.9064 34.6014 26.6748 34.6146C26.1821 34.6547 25.7879 34.3344 25.6401 33.6395H25.6488ZM12.3375 6.4741C11.7182 7.45841 11.3937 8.59545 11.4014 9.75397C11.391 10.4918 11.5279 11.2244 11.8043 11.9101C12.1079 12.6369 12.5828 13.282 13.1896 13.7916C14.5639 14.9041 16.1609 15.7178 17.8759 16.1793C19.808 16.7512 21.9662 17.3002 24.3504 17.8264C25.3745 18.0494 26.3917 18.2906 27.4022 18.5498L28.0224 19.1217C28.1822 19.2655 28.2994 19.4493 28.3615 19.6536C28.6803 20.8918 28.9788 22.1328 29.2715 23.371C29.3312 23.5962 29.3052 23.8353 29.1984 24.0428C29.0916 24.2504 28.9114 24.4122 28.6919 24.4976C28.463 24.6177 28.197 24.6493 27.9457 24.5864C27.6944 24.5235 27.4759 24.3706 27.3327 24.1574C27.2533 24.0173 27.1966 23.8658 27.1646 23.7084C26.9472 22.8506 26.7414 21.9784 26.5299 21.1091C26.3763 20.4714 26.0922 20.337 25.4633 20.5372C24.7714 20.7665 24.067 20.9574 23.3535 21.1091C21.0755 21.5581 18.7918 22.007 16.4935 22.3845L16.224 22.4245C14.7178 22.6255 13.1876 22.5646 11.7028 22.2444C10.3316 22.0952 8.98774 21.7603 7.70916 21.2492C6.47929 20.7423 5.33031 20.0623 4.29801 19.2304C3.79532 18.6686 3.34159 18.066 2.94167 17.4289C2.77358 17.1687 2.62287 16.897 2.48086 16.6197C2.0281 15.7127 1.69685 14.7515 1.49548 13.7602C2.81207 10.4983 4.90625 7.59766 7.60055 5.30411C10.2948 3.01057 13.5098 1.3917 16.973 0.584721C20.4363 -0.222256 24.0456 -0.193555 27.4952 0.668383C30.9448 1.53032 34.1329 3.20009 36.7894 5.53618C34.9724 4.62673 33.0662 3.90238 31.1003 3.37438C28.6157 2.69282 26.051 2.33709 23.4723 2.31636C20.6649 2.31636 18.3609 2.65664 16.5602 3.33721C16.1603 3.48795 15.7686 3.6588 15.3864 3.84907C14.3014 4.34818 13.3556 5.09986 12.6302 6.03946C12.5172 6.17386 12.4187 6.31969 12.3288 6.47124L12.3375 6.4741ZM28.8078 33.488C28.7383 32.9561 28.5789 32.3442 28.518 31.8237C28.4984 31.6996 28.5048 31.5728 28.5367 31.4512C28.5687 31.3296 28.6255 31.2157 28.7037 31.1165C28.782 31.0174 28.8799 30.9351 28.9916 30.8747C29.1032 30.8143 29.2262 30.7772 29.353 30.7654C29.4798 30.7537 29.6077 30.7677 29.7288 30.8065C29.8498 30.8454 29.9616 30.9083 30.0571 30.9914C30.1527 31.0744 30.2299 31.1759 30.2842 31.2896C30.3385 31.4032 30.3687 31.5266 30.3728 31.6522C30.4424 32.1697 30.5235 32.6902 30.5612 33.2135C30.5897 33.4413 30.5309 33.6714 30.3963 33.8587C30.2617 34.0459 30.0611 34.1768 29.8338 34.2257C29.5988 34.2519 29.3623 34.1905 29.1709 34.0535C28.9794 33.9164 28.8468 33.7137 28.7991 33.4851L28.8078 33.488ZM22.5681 34.2229C22.484 33.7167 22.3449 33.1334 22.2985 32.6244C22.2805 32.5042 22.2868 32.3816 22.317 32.2638C22.3473 32.146 22.4008 32.0352 22.4747 31.9379C22.5485 31.8406 22.6411 31.7587 22.7472 31.6969C22.8532 31.6351 22.9706 31.5946 23.0926 31.5778C23.2143 31.5606 23.3381 31.5675 23.457 31.5982C23.5759 31.6288 23.6873 31.6827 23.7848 31.7565C23.8823 31.8303 23.9638 31.9226 24.0246 32.0279C24.0854 32.1333 24.1243 32.2495 24.1389 32.3699C24.2258 32.9104 24.362 33.5137 24.4055 34.0685C24.4219 34.2798 24.3584 34.4897 24.2273 34.6576C24.0962 34.8255 23.9068 34.9395 23.6955 34.9778C23.57 35.0087 23.4393 35.0132 23.3119 34.991C23.1845 34.9688 23.0633 34.9203 22.9562 34.8489C22.849 34.7774 22.7583 34.6844 22.6899 34.5761C22.6216 34.4678 22.5771 34.3464 22.5594 34.22L22.5681 34.2229Z" fill="url(#paint1_linear_78_1880)"/>
<defs>
<linearGradient id="paint0_linear_78_1880" x1="-0.00579178" y1="21.895" x2="44.2608" y2="21.895" gradientUnits="userSpaceOnUse">
<stop stop-color="#3A83C5"/>
<stop offset="1" stop-color="#212E5F"/>
</linearGradient>
<linearGradient id="paint1_linear_78_1880" x1="1.48969" y1="21.8269" x2="43.2523" y2="21.8269" gradientUnits="userSpaceOnUse">
<stop stop-color="white"/>
<stop offset="1" stop-color="#5590CC"/>
</linearGradient>
</defs>
</svg>
