<svg width="28" height="17" viewBox="0 0 28 17" fill="none" xmlns="http://www.w3.org/2000/svg">
<path d="M28 8.5C28 13.1772 24.2666 17 19.5999 17C14.9777 17 11.2 13.1772 11.2 8.5C11.2 3.82275 14.9333 0 19.5555 0C24.2666 0 28 3.82275 28 8.5Z" fill="#FFB600"/>
<path d="M19.5999 0C24.2222 0 28 3.82275 28 8.5C28 13.1772 24.2666 17 19.5999 17C14.9777 17 11.2 13.1772 11.2 8.5" fill="#F7981D"/>
<path d="M19.6001 0C24.2223 0 28.0001 3.82275 28.0001 8.5C28.0001 13.1772 24.2668 17 19.6001 17" fill="#FF8500"/>
<path d="M8.31111 0C3.73333 0.0449735 0 3.82275 0 8.5C0 13.1772 3.73333 17 8.4 17C10.5778 17 12.5333 16.1455 14.0444 14.7963C14.3556 14.5265 14.6222 14.2116 14.8889 13.8968H13.1556C12.9333 13.627 12.7111 13.3122 12.5333 13.0423H15.5111C15.6889 12.7725 15.8667 12.4577 16 12.1429H12.0444C11.9111 11.873 11.7778 11.5582 11.6889 11.2434H16.3111C16.5778 10.3889 16.7556 9.48942 16.7556 8.54497C16.7556 7.91534 16.6667 7.33069 16.5778 6.74603H11.4222C11.4667 6.43122 11.5556 6.16138 11.6444 5.84656H16.2667C16.1778 5.53175 16.0444 5.21693 15.9111 4.94709H12C12.1333 4.63227 12.3111 4.36243 12.4889 4.04762H15.4667C15.2889 3.7328 15.0667 3.41799 14.8 3.14815H13.1556C13.4222 2.83333 13.6889 2.56349 14 2.29365C12.5333 0.899471 10.5333 0.089947 8.35556 0.089947C8.35556 -8.71205e-08 8.35556 0 8.31111 0Z" fill="#FF5050"/>
<path d="M0 8.4999C0 13.1771 3.73333 16.9999 8.4 16.9999C10.5778 16.9999 12.5333 16.1454 14.0444 14.7962C14.3556 14.5264 14.6222 14.2115 14.8889 13.8967H13.1556C12.9333 13.6269 12.7111 13.3121 12.5333 13.0422H15.5111C15.6889 12.7724 15.8667 12.4576 16 12.1428H12.0444C11.9111 11.8729 11.7778 11.5581 11.6889 11.2433H16.3111C16.5778 10.3888 16.7556 9.48931 16.7556 8.54487C16.7556 7.91524 16.6667 7.33058 16.5778 6.74593H11.4222C11.4667 6.43111 11.5556 6.16127 11.6444 5.84646H16.2667C16.1778 5.53164 16.0444 5.21683 15.9111 4.94699H12C12.1333 4.63217 12.3111 4.36233 12.4889 4.04752H15.4667C15.2889 3.7327 15.0667 3.41789 14.8 3.14804H13.1556C13.4222 2.83323 13.6889 2.56339 14 2.29355C12.5333 0.899368 10.5333 0.0898438 8.35556 0.0898438H8.31111" fill="#E52836"/>
<path d="M8.39992 16.9999C10.5777 16.9999 12.5333 16.1454 14.0444 14.7962C14.3555 14.5264 14.6221 14.2115 14.8888 13.8967H13.1555C12.9333 13.6269 12.711 13.3121 12.5333 13.0422H15.511C15.6888 12.7724 15.8666 12.4576 15.9999 12.1428H12.0444C11.911 11.8729 11.7777 11.5581 11.6888 11.2433H16.311C16.5777 10.3888 16.7555 9.48931 16.7555 8.54487C16.7555 7.91524 16.6666 7.33058 16.5777 6.74593H11.4221C11.4666 6.43111 11.5555 6.16127 11.6444 5.84646H16.2666C16.1777 5.53164 16.0444 5.21683 15.911 4.94699H11.9999C12.1333 4.63217 12.311 4.36233 12.4888 4.04752H15.4666C15.2888 3.7327 15.0666 3.41789 14.7999 3.14804H13.1555C13.4221 2.83323 13.6888 2.56339 13.9999 2.29355C12.5333 0.899368 10.5333 0.0898438 8.35548 0.0898438H8.31104" fill="#CB2026"/>
<path d="M11.3778 10.6579L11.5111 9.89332C11.4666 9.89332 11.3778 9.93829 11.2889 9.93829C10.9778 9.93829 10.9333 9.7584 10.9778 9.66845L11.2444 8.09438H11.7333L11.8666 7.23988H11.4222L11.5111 6.7002H10.6222C10.6222 6.7002 10.0889 9.66845 10.0889 10.0282C10.0889 10.5679 10.4 10.7928 10.8 10.7928C11.0666 10.7928 11.2889 10.7028 11.3778 10.6579Z" fill="white"/>
<path d="M11.689 9.21895C11.689 10.4782 12.5334 10.793 13.2445 10.793C13.9112 10.793 14.1779 10.6581 14.1779 10.6581L14.3556 9.80361C14.3556 9.80361 13.8667 10.0285 13.4223 10.0285C12.4445 10.0285 12.6223 9.3089 12.6223 9.3089H14.4445C14.4445 9.3089 14.5779 8.72425 14.5779 8.49938C14.5779 7.91472 14.2667 7.19515 13.289 7.19515C12.3556 7.1052 11.689 8.09462 11.689 9.21895ZM13.2445 7.91472C13.7334 7.91472 13.6445 8.49938 13.6445 8.54435H12.6667C12.6667 8.49938 12.7556 7.91472 13.2445 7.91472Z" fill="white"/>
<path d="M18.8889 10.6583L19.0667 9.66891C19.0667 9.66891 18.6222 9.89378 18.3111 9.89378C17.6889 9.89378 17.4222 9.39907 17.4222 8.85939C17.4222 7.78002 17.9556 7.19537 18.5778 7.19537C19.0222 7.19537 19.3778 7.46521 19.3778 7.46521L19.5111 6.52077C19.5111 6.52077 18.9778 6.2959 18.4889 6.2959C17.4667 6.2959 16.4445 7.19537 16.4445 8.90436C16.4445 10.0287 16.9778 10.7933 18.0445 10.7933C18.4 10.7933 18.8889 10.6583 18.8889 10.6583Z" fill="white"/>
<path d="M6.48894 7.10547C5.86672 7.10547 5.42227 7.28536 5.42227 7.28536L5.28894 8.04991C5.28894 8.04991 5.68894 7.87002 6.26672 7.87002C6.57783 7.87002 6.84449 7.91499 6.84449 8.18483C6.84449 8.36473 6.80005 8.4097 6.80005 8.4097C6.80005 8.4097 6.53338 8.4097 6.40005 8.4097C5.64449 8.4097 4.80005 8.72452 4.80005 9.75891C4.80005 10.5684 5.33338 10.7483 5.64449 10.7483C6.26672 10.7483 6.53338 10.3436 6.57783 10.3436L6.53338 10.7034H7.33338L7.68894 8.22981C7.68894 7.15044 6.80005 7.10547 6.48894 7.10547ZM6.66672 9.12928C6.66672 9.2642 6.57783 9.98378 6.04449 9.98378C5.77783 9.98378 5.68894 9.75891 5.68894 9.62399C5.68894 9.39912 5.82227 9.0843 6.48894 9.0843C6.62227 9.12928 6.66672 9.12928 6.66672 9.12928Z" fill="white"/>
<path d="M8.53345 10.7484C8.75568 10.7484 9.86679 10.7934 9.86679 9.57907C9.86679 8.45473 8.80012 8.67959 8.80012 8.22986C8.80012 8.00499 8.9779 7.91504 9.28901 7.91504C9.42234 7.91504 9.91123 7.96002 9.91123 7.96002L10.0446 7.15049C10.0446 7.15049 9.73345 7.06055 9.20012 7.06055C8.53345 7.06055 7.86679 7.33039 7.86679 8.22986C7.86679 9.26425 8.9779 9.1743 8.9779 9.57907C8.9779 9.84891 8.66679 9.89388 8.44456 9.89388C8.04456 9.89388 7.64456 9.75896 7.64456 9.75896L7.51123 10.5685C7.55567 10.6584 7.7779 10.7484 8.53345 10.7484Z" fill="white"/>
<path d="M26.2667 6.38574L26.089 7.60003C26.089 7.60003 25.7334 7.15029 25.2445 7.15029C24.4445 7.15029 23.7334 8.13971 23.7334 9.30902C23.7334 10.0286 24.089 10.7931 24.8445 10.7931C25.3778 10.7931 25.689 10.4334 25.689 10.4334L25.6445 10.7482H26.5334L27.2001 6.43072L26.2667 6.38574ZM25.8667 8.76934C25.8667 9.26405 25.6445 9.89368 25.1556 9.89368C24.8445 9.89368 24.6667 9.62384 24.6667 9.1741C24.6667 8.45453 24.9778 8.00479 25.3778 8.00479C25.689 8.00479 25.8667 8.22966 25.8667 8.76934Z" fill="white"/>
<path d="M1.64449 10.7032L2.17783 7.46511L2.26672 10.7032H2.88894L4.04449 7.46511L3.5556 10.7032H4.48894L5.20005 6.38574H3.73338L2.84449 9.03918L2.80005 6.38574H1.51116L0.800049 10.7032H1.64449Z" fill="white"/>
<path d="M15.4222 10.7032C15.6889 9.21912 15.7333 8.00484 16.3556 8.2297C16.4445 7.64505 16.5778 7.42018 16.6667 7.19531C16.6667 7.19531 16.6222 7.19531 16.4889 7.19531C16.0889 7.19531 15.7778 7.73499 15.7778 7.73499L15.8667 7.24029H15.0222L14.4445 10.7482H15.4222V10.7032Z" fill="white"/>
<path d="M20.9334 7.10547C20.3112 7.10547 19.8667 7.28536 19.8667 7.28536L19.7334 8.04991C19.7334 8.04991 20.1334 7.87002 20.7112 7.87002C21.0223 7.87002 21.289 7.91499 21.289 8.18483C21.289 8.36473 21.2445 8.4097 21.2445 8.4097C21.2445 8.4097 20.9778 8.4097 20.8445 8.4097C20.089 8.4097 19.2445 8.72452 19.2445 9.75891C19.2445 10.5684 19.7778 10.7483 20.089 10.7483C20.7112 10.7483 20.9778 10.3436 21.0223 10.3436L20.9778 10.7034H21.7778L22.1334 8.22981C22.1778 7.15044 21.2445 7.10547 20.9334 7.10547ZM21.1556 9.12928C21.1556 9.2642 21.0667 9.98378 20.5334 9.98378C20.2667 9.98378 20.1778 9.75891 20.1778 9.62399C20.1778 9.39912 20.3112 9.0843 20.9778 9.0843C21.1112 9.12928 21.1112 9.12928 21.1556 9.12928Z" fill="white"/>
<path d="M22.8889 10.7032C23.1556 9.21912 23.2 8.00484 23.8222 8.2297C23.9111 7.64505 24.0445 7.42018 24.1334 7.19531C24.1334 7.19531 24.0889 7.19531 23.9556 7.19531C23.5556 7.19531 23.2445 7.73499 23.2445 7.73499L23.3334 7.24029H22.4889L21.9111 10.7482H22.8889V10.7032Z" fill="white"/>
<path d="M10 10.0282C10 10.5679 10.3111 10.7928 10.7111 10.7928C11.0222 10.7928 11.2889 10.7028 11.3778 10.6579L11.5111 9.89332C11.4667 9.89332 11.3778 9.93829 11.2889 9.93829C10.9778 9.93829 10.9333 9.7584 10.9778 9.66845L11.2444 8.09438H11.7333L11.8667 7.23988H11.4222L11.5111 6.7002" fill="#DCE5E5"/>
<path d="M12.1333 9.21895C12.1333 10.4782 12.5333 10.793 13.2444 10.793C13.9111 10.793 14.1777 10.6581 14.1777 10.6581L14.3555 9.80361C14.3555 9.80361 13.8666 10.0285 13.4222 10.0285C12.4444 10.0285 12.6222 9.3089 12.6222 9.3089H14.4444C14.4444 9.3089 14.5777 8.72425 14.5777 8.49938C14.5777 7.91472 14.2666 7.19515 13.2889 7.19515C12.3555 7.1052 12.1333 8.09462 12.1333 9.21895ZM13.2444 7.91472C13.7333 7.91472 13.8222 8.49938 13.8222 8.54435H12.6666C12.6666 8.49938 12.7555 7.91472 13.2444 7.91472Z" fill="#DCE5E5"/>
<path d="M18.8889 10.6583L19.0667 9.66891C19.0667 9.66891 18.6222 9.89378 18.3111 9.89378C17.6889 9.89378 17.4222 9.39907 17.4222 8.85939C17.4222 7.78002 17.9556 7.19537 18.5778 7.19537C19.0222 7.19537 19.3778 7.46521 19.3778 7.46521L19.5111 6.52077C19.5111 6.52077 18.9778 6.2959 18.4889 6.2959C17.4667 6.2959 16.8889 7.19537 16.8889 8.90436C16.8889 10.0287 16.9778 10.7933 18.0445 10.7933C18.4 10.7933 18.8889 10.6583 18.8889 10.6583Z" fill="#DCE5E5"/>
<path d="M5.28894 8.09478C5.28894 8.09478 5.68894 7.91489 6.26672 7.91489C6.57783 7.91489 6.84449 7.95986 6.84449 8.2297C6.84449 8.4096 6.80005 8.45457 6.80005 8.45457C6.80005 8.45457 6.53338 8.45457 6.40005 8.45457C5.64449 8.45457 4.80005 8.76939 4.80005 9.80378C4.80005 10.6133 5.33338 10.7932 5.64449 10.7932C6.26672 10.7932 6.53338 10.3884 6.57783 10.3884L6.53338 10.7482H7.33338L7.68894 8.27468C7.68894 7.24029 6.80005 7.19531 6.44449 7.19531M7.11116 9.12918C7.11116 9.2641 6.57783 9.98367 6.04449 9.98367C5.77783 9.98367 5.68894 9.7588 5.68894 9.62388C5.68894 9.39902 5.82227 9.0842 6.48894 9.0842C6.62227 9.12917 7.11116 9.12918 7.11116 9.12918Z" fill="#DCE5E5"/>
<path d="M7.55554 10.6584C7.55554 10.6584 7.82221 10.7484 8.57776 10.7484C8.79999 10.7484 9.9111 10.7934 9.9111 9.57907C9.9111 8.45473 8.84443 8.67959 8.84443 8.22986C8.84443 8.00499 9.02221 7.91504 9.33332 7.91504C9.46665 7.91504 9.95554 7.96002 9.95554 7.96002L10.0889 7.15049C10.0889 7.15049 9.77776 7.06055 9.24443 7.06055C8.57776 7.06055 8.35554 7.33039 8.35554 8.22986C8.35554 9.26425 9.02221 9.1743 9.02221 9.57907C9.02221 9.84891 8.7111 9.89388 8.48888 9.89388" fill="#DCE5E5"/>
<path d="M26.0889 7.59998C26.0889 7.59998 25.7333 7.15024 25.2445 7.15024C24.4445 7.15024 24.1778 8.13966 24.1778 9.30897C24.1778 10.0285 24.0889 10.7931 24.8445 10.7931C25.3778 10.7931 25.6889 10.4333 25.6889 10.4333L25.6445 10.7481H26.5333L27.2 6.43066M26.0445 8.76929C26.0445 9.264 25.6445 9.89363 25.1556 9.89363C24.8445 9.89363 24.6667 9.62379 24.6667 9.17405C24.6667 8.45447 24.9778 8.00474 25.3778 8.00474C25.6889 8.00474 26.0445 8.22961 26.0445 8.76929Z" fill="#DCE5E5"/>
<path d="M1.64449 10.7032L2.17783 7.46511L2.26672 10.7032H2.88894L4.04449 7.46511L3.5556 10.7032H4.48894L5.20005 6.38574H4.08894L2.84449 9.03918L2.80005 6.38574H2.31116L0.800049 10.7032H1.64449Z" fill="#DCE5E5"/>
<path d="M14.4889 10.7032H15.4222C15.6889 9.21912 15.7333 8.00484 16.3556 8.2297C16.4444 7.64505 16.5778 7.42018 16.6667 7.19531C16.6667 7.19531 16.6222 7.19531 16.4889 7.19531C16.0889 7.19531 15.7778 7.73499 15.7778 7.73499L15.8667 7.24029" fill="#DCE5E5"/>
<path d="M19.7334 8.09478C19.7334 8.09478 20.1334 7.91489 20.7112 7.91489C21.0223 7.91489 21.289 7.95986 21.289 8.2297C21.289 8.4096 21.2445 8.45457 21.2445 8.45457C21.2445 8.45457 20.9778 8.45457 20.8445 8.45457C20.089 8.45457 19.2445 8.76939 19.2445 9.80378C19.2445 10.6133 19.7778 10.7932 20.089 10.7932C20.7112 10.7932 20.9778 10.3884 21.0223 10.3884L20.9778 10.7482H21.7778L22.1334 8.27468C22.1334 7.24029 21.2445 7.19531 20.889 7.19531M21.5556 9.12918C21.5556 9.2641 21.0223 9.98367 20.489 9.98367C20.2223 9.98367 20.1334 9.7588 20.1334 9.62388C20.1334 9.39902 20.2667 9.0842 20.9334 9.0842C21.1112 9.12917 21.5556 9.12918 21.5556 9.12918Z" fill="#DCE5E5"/>
<path d="M21.9556 10.7032H22.8889C23.1556 9.21912 23.2 8.00484 23.8222 8.2297C23.9111 7.64505 24.0445 7.42018 24.1333 7.19531C24.1333 7.19531 24.0889 7.19531 23.9556 7.19531C23.5556 7.19531 23.2445 7.73499 23.2445 7.73499L23.3333 7.24029" fill="#DCE5E5"/>
</svg>
