<svg width="24" height="24" viewBox="0 0 24 24" fill="none" xmlns="http://www.w3.org/2000/svg">
<path d="M19.6073 18.746C19.6073 19.627 18.8913 20.37 18.0103 20.37H5.23134C4.35034 20.37 3.63434 19.627 3.63434 18.746V5.96703C3.63434 5.08603 4.35034 4.39603 5.23134 4.39603H12.6853V3.33203H5.23134C3.76334 3.33203 2.56934 4.50003 2.56934 5.96803V18.746C2.56934 20.214 3.76334 21.434 5.23134 21.434H18.0093C19.4773 21.434 20.6713 20.213 20.6713 18.746V11.318H19.6063L19.6073 18.746Z" fill="#003198"/>
<path d="M20.8069 3.17016C20.0029 2.36516 18.5999 2.36516 17.7949 3.17016L10.6519 10.3132C10.5839 10.3812 10.5349 10.4672 10.5119 10.5602L9.75988 13.5712C9.71488 13.7522 9.76788 13.9442 9.89988 14.0772C10.0009 14.1782 10.1369 14.2332 10.2759 14.2332C10.3189 14.2332 10.3619 14.2282 10.4049 14.2172L13.4169 13.4642C13.5109 13.4412 13.5959 13.3922 13.6639 13.3242L20.8069 6.18116C21.2089 5.77916 21.4309 5.24416 21.4309 4.67516C21.4309 4.10616 21.2099 3.57216 20.8069 3.17016ZM13.0159 12.4672L11.0079 12.9692L11.5099 10.9612L17.4189 5.05216L18.9249 6.55816L13.0159 12.4672ZM20.0539 5.42816L19.6779 5.80416L18.1719 4.29816L18.5479 3.92216C18.9499 3.52016 19.6519 3.52016 20.0539 3.92216C20.2549 4.12316 20.3659 4.39016 20.3659 4.67516C20.3659 4.96016 20.2549 5.22716 20.0539 5.42816Z" fill="#003198"/>
</svg>
