<svg width="39" height="36" viewBox="0 0 39 36" fill="none" xmlns="http://www.w3.org/2000/svg">
<path d="M19.501 36C17.3038 36 15.5637 34.355 15.5637 32.3647H23.3445C23.3445 34.5138 21.6415 36 19.499 36H19.501ZM31.2191 15.7503V24.9244L35.1564 28.6464V30.4631H3.84746V28.6464L7.78477 24.9244V15.7503C7.78477 10.0381 10.9897 5.3652 16.5734 4.06729V2.76937C16.5734 1.21114 17.8546 0 19.5029 0C21.1513 0 22.4325 1.21114 22.4325 2.76937V4.06729C28.0162 5.3652 31.2191 10.1248 31.2191 15.7503ZM35.0647 14.7977C34.7893 9.86451 32.1351 5.62367 28.1978 2.94107L30.9438 0.345249C35.6134 3.72019 38.7246 8.91369 39 14.7977H35.0647ZM10.8959 2.94107C6.86684 5.62367 4.21268 9.86451 3.9373 14.7977H0C0.275377 8.91184 3.38655 3.72019 8.05624 0.345249L10.8959 2.94107Z" fill="#3D9580"/>
</svg>
