<svg width="38" height="12" viewBox="0 0 38 12" fill="none" xmlns="http://www.w3.org/2000/svg">
<path d="M29.7458 2.5347C29.903 2.41153 29.9816 2.34995 30.0602 2.28837C31.1526 1.38003 32.5516 1.4801 33.4868 2.55779C33.5811 2.66556 33.6283 2.67326 33.7226 2.58089C33.7855 2.5116 33.8562 2.45772 33.9191 2.38844C34.65 1.68794 35.6166 1.4801 36.5205 1.87269C37.4714 2.28837 37.9823 3.01966 37.9901 4.04347C38.0058 6.25274 37.998 8.45432 37.998 10.6636C37.998 11.4488 37.5029 11.9414 36.7091 11.9414C36.3947 11.9414 36.0803 11.9183 35.766 11.9491C35.4437 11.9799 35.3494 11.8798 35.3494 11.5488C35.3652 9.39345 35.3573 7.23806 35.3573 5.08267C35.3573 4.9903 35.3573 4.90562 35.3573 4.81325C35.3494 4.31289 35.1451 4.10505 34.6578 4.08196C34.2177 4.05887 33.9112 4.32059 33.864 4.75937C33.8562 4.85944 33.864 4.96721 33.864 5.06728C33.864 6.93015 33.864 8.78532 33.864 10.6482C33.864 11.4642 33.3846 11.9414 32.5516 11.9337C32.1272 11.926 31.5534 12.1185 31.3098 11.8491C31.0976 11.6181 31.2391 11.0716 31.2391 10.6636C31.2391 8.75453 31.2391 6.83778 31.2391 4.92872C31.2391 4.25131 30.7911 3.90491 30.2095 4.13584C29.848 4.2821 29.7301 4.56692 29.7301 4.93642C29.738 6.72231 29.7301 8.5005 29.7301 10.2864C29.7301 10.425 29.7301 10.5712 29.7301 10.7098C29.7065 11.4565 29.2193 11.926 28.4648 11.9337C28.1504 11.9414 27.836 11.9106 27.5217 11.9414C27.1837 11.9722 27.0815 11.8798 27.0894 11.5257C27.1051 8.5005 27.0973 5.47526 27.0973 2.44232C27.0973 2.31146 27.1051 2.1883 27.0973 2.05743C27.0815 1.88808 27.1523 1.8342 27.3252 1.8342C28.0482 1.8419 28.7634 1.8419 29.4865 1.8342C29.6672 1.8342 29.7537 1.88038 29.738 2.07283C29.7222 2.21139 29.738 2.33455 29.7458 2.5347Z" fill="#02B9EF"/>
<path d="M13.0843 6.70666C13.0843 7.76126 13.0843 8.80816 13.0843 9.86276C13.0765 11.233 12.3456 11.9412 10.9466 11.9489C10.3336 11.9489 9.71273 11.9566 9.09971 11.9489C7.85795 11.9335 6.94629 11.1252 6.88341 9.90895C6.83626 9.0391 6.8284 8.16155 6.87555 7.2917C6.93843 6.04465 7.91297 5.1671 9.20188 5.1517C9.53982 5.144 9.88563 5.1517 10.2236 5.1517C10.5537 5.144 10.6794 4.95926 10.6716 4.65134C10.6716 4.34343 10.5301 4.20487 10.2157 4.22027C9.86205 4.22797 9.50839 4.22797 9.15472 4.22027C8.29021 4.20487 7.8108 3.743 7.81866 2.91164C7.81866 2.57294 7.66147 2.11876 7.88939 1.91862C8.08587 1.74927 8.53385 1.85704 8.87179 1.85704C9.75202 1.84934 10.6244 1.85704 11.5046 1.85704C12.4399 1.85704 13.0765 2.48056 13.0843 3.4043C13.0922 4.49739 13.0843 5.60587 13.0843 6.70666ZM10.6794 8.45406C10.6794 8.3232 10.6794 8.20004 10.6794 8.06917C10.6794 7.284 10.6794 7.284 9.87777 7.31479C9.47695 7.33018 9.25689 7.53033 9.24903 7.93831C9.24117 8.26162 9.24117 8.57723 9.24903 8.90054C9.25689 9.45478 9.50839 9.60104 10.3257 9.62413C10.9309 9.63953 10.6244 9.22384 10.6794 8.99291C10.7108 8.82356 10.6716 8.63111 10.6794 8.45406Z" fill="#06306F"/>
<path d="M20.0791 5.86738C20.0791 7.04515 20.0949 8.23061 20.0713 9.40838C20.0556 10.3167 19.8355 11.1404 18.9396 11.6253C18.578 11.8178 18.1851 11.9256 17.7764 11.9333C16.8726 11.9487 15.9688 11.9333 15.065 11.9487C14.8449 11.9487 14.7977 11.8717 14.8056 11.6792C14.8213 11.3559 14.7978 11.0403 14.8135 10.717C14.8292 10.1012 15.3086 9.63161 15.9373 9.60852C16.346 9.59312 16.7468 9.60082 17.1555 9.60852C17.4856 9.60852 17.6664 9.47766 17.6664 9.13126C17.6664 8.77716 17.4935 8.65399 17.1634 8.64629C16.6132 8.6309 16.0631 8.70788 15.5208 8.55392C14.5856 8.2845 13.9018 7.52241 13.8782 6.57558C13.8311 5.07451 13.8625 3.57343 13.8546 2.07236C13.8546 1.90301 13.9097 1.84912 14.0826 1.85682C14.727 1.86452 15.3636 1.87222 16.0081 1.85682C16.291 1.84912 16.2517 2.00308 16.2517 2.17243C16.2517 3.30401 16.2517 4.42789 16.2517 5.55947C16.2517 6.05213 16.4875 6.31386 16.9276 6.32925C17.4463 6.34465 17.6742 6.13681 17.6742 5.62105C17.6742 4.48178 17.6821 3.3348 17.6664 2.19553C17.6664 1.9261 17.7371 1.84912 18.0122 1.85682C18.5859 1.87992 19.1675 1.88761 19.7412 1.85682C20.0556 1.84143 20.1027 1.95689 20.0949 2.22632C20.0713 3.43487 20.0791 4.65113 20.0791 5.86738Z" fill="#06306F"/>
<path d="M0.0538003 7.61492C0.0538003 6.36017 0.0538003 5.09773 0.0538003 3.84299C0.0538003 2.61134 0.824003 1.84156 2.08934 1.85695C2.91455 1.86465 3.73977 1.76458 4.55713 1.91853C5.6024 2.11868 6.26258 2.91155 6.27043 3.96615C6.27829 5.08234 6.27043 6.19852 6.27043 7.3147C6.27043 8.7157 5.4295 9.57016 3.99912 9.60865C3.56687 9.62404 3.13461 9.61635 2.70235 9.60865C2.50587 9.60095 2.41942 9.66254 2.42728 9.87038C2.443 10.1783 2.43514 10.4862 2.42728 10.7941C2.41156 11.4561 1.93215 11.9334 1.26412 11.9411C0.871158 11.9488 0.376028 12.1027 0.124533 11.8795C-0.111243 11.6717 0.0616595 11.179 0.0538003 10.8095C0.0459411 9.74721 0.0538003 8.67721 0.0538003 7.61492ZM2.42728 5.72895C2.42728 5.97528 2.42728 6.21391 2.42728 6.46024C2.42728 7.3301 2.42728 7.3301 3.31537 7.25312C3.70047 7.22233 3.88124 7.03758 3.88909 6.66039C3.89695 6.22931 3.87338 5.79054 3.89695 5.35946C3.94411 4.11241 3.70833 4.23558 2.67092 4.22788C2.4823 4.22788 2.41942 4.28176 2.41942 4.46651C2.43514 4.88219 2.42728 5.30557 2.42728 5.72895Z" fill="#06306F"/>
<path d="M22.3031 7.63035C22.3031 6.60655 22.2952 5.57504 22.311 4.55123C22.311 4.3126 22.2559 4.21253 21.9887 4.22022C21.6351 4.23562 21.1635 4.33569 20.967 4.16634C20.7234 3.9431 20.912 3.46584 20.8806 3.09634C20.8806 3.07325 20.8806 3.04246 20.8806 3.01936C20.8806 2.65757 20.7627 2.23419 20.9199 1.96476C21.0771 1.69534 21.5565 1.86469 21.8944 1.78002C22.5624 1.61067 23.0654 1.23347 23.4741 0.710021C23.757 0.355921 24.1107 0.101893 24.5665 0.0172176C24.8102 -0.0289693 24.9595 0.00182216 24.9438 0.309735C24.9202 0.740812 24.9438 1.17959 24.9359 1.61836C24.9281 1.80311 24.9988 1.86469 25.1874 1.857C25.5018 1.8493 25.8162 1.86469 26.1305 1.8493C26.3191 1.8416 26.382 1.91088 26.3742 2.09563C26.3663 2.72685 26.3663 3.35037 26.3742 3.98159C26.3742 4.15864 26.327 4.25101 26.1305 4.22792C26.0912 4.22022 26.0519 4.22792 26.0126 4.22792C25.6668 4.25871 25.1874 4.07396 25.0067 4.3049C24.8338 4.52044 24.9438 4.96691 24.9438 5.31331C24.9438 7.40712 24.9359 9.49322 24.9516 11.587C24.9516 11.8795 24.8731 11.9719 24.5744 11.9488C24.2915 11.9257 24.0007 11.9488 23.7099 11.9411C22.8611 11.9103 22.3031 11.3484 22.3031 10.517C22.3031 9.55481 22.3031 8.59258 22.3031 7.63035Z" fill="#02B9EF"/>
</svg>
