<svg width="21" height="21" viewBox="0 0 21 21" fill="none" xmlns="http://www.w3.org/2000/svg">
<path d="M12.6138 4.58369C13.4905 4.75443 14.2963 5.1824 14.9279 5.81284C15.5596 6.44329 15.9884 7.24751 16.1594 8.12259M12.6138 1C14.4353 1.20197 16.1339 2.01613 17.4307 3.3088C18.7275 4.60147 19.5453 6.29581 19.75 8.11363M18.8524 15.2631V17.9509C18.8534 18.2004 18.8022 18.4474 18.702 18.676C18.6019 18.9046 18.455 19.1098 18.2708 19.2785C18.0865 19.4472 17.8691 19.5756 17.6322 19.6556C17.3954 19.7355 17.1445 19.7652 16.8955 19.7427C14.1333 19.4432 11.48 18.5011 9.14888 16.9922C6.98003 15.6167 5.14122 13.7814 3.76304 11.6167C2.24601 9.27941 1.30193 6.61833 1.00729 3.84904C0.984854 3.60128 1.01435 3.35159 1.09391 3.11584C1.17346 2.88009 1.30133 2.66345 1.46936 2.47973C1.63739 2.296 1.84192 2.14921 2.0699 2.0487C2.29789 1.94819 2.54435 1.89616 2.79359 1.89592H5.48651C5.92214 1.89164 6.34446 2.04561 6.67477 2.32913C7.00507 2.61265 7.22082 3.00637 7.28179 3.43691C7.39545 4.29706 7.60624 5.14161 7.91014 5.95446C8.03091 6.27513 8.05704 6.62364 7.98545 6.95868C7.91386 7.29373 7.74754 7.60127 7.5062 7.84486L6.36619 8.98268C7.64403 11.2257 9.50475 13.0828 11.752 14.3582L12.892 13.2204C13.1361 12.9795 13.4442 12.8135 13.7799 12.7421C14.1156 12.6706 14.4648 12.6967 14.7861 12.8172C15.6005 13.1205 16.4466 13.3309 17.3084 13.4444C17.7445 13.5058 18.1427 13.725 18.4274 14.0603C18.712 14.3957 18.8633 14.8237 18.8524 15.2631Z" stroke="#F3F3F3" stroke-width="2" stroke-linecap="round" stroke-linejoin="round"/>
</svg>
