<svg width="60" height="60" viewBox="0 0 60 60" fill="none" xmlns="http://www.w3.org/2000/svg">
<circle cx="30" cy="30" r="30" fill="white"/>
<path d="M30.2358 32.9298C35.1985 32.9298 39.2215 28.5781 39.2215 23.21C39.2215 17.8419 35.1985 13.4902 30.2358 13.4902C25.2731 13.4902 21.25 17.8419 21.25 23.21C21.25 28.5781 25.2731 32.9298 30.2358 32.9298Z" fill="#7E98D1"/>
<path d="M47.8435 41.1595C46.2261 38.2436 43.1709 35.8137 39.2172 34.3557C38.1389 34.0317 36.8809 34.0317 35.9823 34.5177C34.1852 35.4897 32.388 35.9756 30.2314 35.9756C28.3422 35.9756 26.7288 35.6027 25.1495 34.8567C24.698 34.6435 24.2482 34.4157 23.7591 34.315C22.9731 34.1532 22.0583 34.1514 21.2457 34.5177C17.2919 35.9756 14.2368 38.4056 12.6193 41.3215C11.3613 43.4275 13.3382 45.8574 16.0339 45.8574H44.429C47.1247 45.8574 49.1016 43.4275 47.8435 41.1595Z" fill="#7E98D1"/>
</svg>
