<svg width="46" height="46" viewBox="0 0 46 46" fill="none" xmlns="http://www.w3.org/2000/svg">
<path d="M23 45.5C10.5736 45.5 0.5 35.4264 0.5 23C0.5 10.5736 10.5736 0.5 23 0.5C35.4264 0.5 45.5 10.5736 45.5 23C45.5 35.4264 35.4264 45.5 23 45.5Z" fill="#DEF0FF"/>
<path d="M28.4688 34C28.2686 33.9999 28.0705 33.9648 27.8857 33.8969C27.701 33.829 27.5333 33.7295 27.3922 33.6042L16.4477 23.9486C16.3058 23.8241 16.1932 23.6761 16.1164 23.5131C16.0395 23.3501 16 23.1753 16 22.9988C16 22.8223 16.0395 22.6475 16.1164 22.4845C16.1932 22.3215 16.3058 22.1735 16.4477 22.0491L27.3922 12.3934C27.5336 12.2687 27.7014 12.1697 27.8862 12.1022C28.0709 12.0347 28.2688 12 28.4688 12C28.6687 12 28.8667 12.0347 29.0514 12.1022C29.2361 12.1697 29.4039 12.2687 29.5453 12.3934C29.6866 12.5181 29.7988 12.6662 29.8753 12.8291C29.9518 12.9921 29.9912 13.1668 29.9912 13.3431C29.9912 13.5195 29.9518 13.6942 29.8753 13.8571C29.7988 14.0201 29.6866 14.1682 29.5453 14.2929L19.6703 22.9988L29.5453 31.7048C29.7612 31.8917 29.9089 32.1314 29.9694 32.393C30.0298 32.6545 30.0003 32.9261 29.8846 33.1727C29.769 33.4194 29.5723 33.6299 29.3201 33.7773C29.0678 33.9247 28.7713 34.0023 28.4688 34Z" fill="#003198"/>
</svg>
