<svg width="53" height="16" viewBox="0 0 53 16" fill="none" xmlns="http://www.w3.org/2000/svg">
<g opacity="0.2">
<path fill-rule="evenodd" clip-rule="evenodd" d="M22.8772 0.276652L20.3043 15.734H24.4207L26.9939 0.276652H22.8772ZM16.8409 0.276652L12.9162 10.9081L12.4519 8.61874L12.4523 8.61949L12.35 8.10638C11.875 7.10568 10.7749 5.20374 8.69762 3.5806C8.08349 3.10083 7.46442 2.69137 6.86597 2.34162L10.4329 15.734H14.7219L21.2714 0.276652H16.8409ZM32.9065 4.56791C32.9065 2.82032 36.9155 3.04488 38.6771 3.99381L39.2645 0.673995C39.2645 0.673995 37.4516 0 35.5619 0C33.519 0 28.6679 0.873364 28.6679 5.11703C28.6679 9.11084 34.3616 9.16047 34.3616 11.2573C34.3616 13.3541 29.2549 12.9793 27.5696 11.6567L26.9571 15.1266C26.9571 15.1266 28.7952 16 31.6042 16C34.4129 16 38.6514 14.5775 38.6514 10.7081C38.6514 6.68936 32.9065 6.31506 32.9065 4.56791ZM49.7044 0.276652H46.3947C44.8665 0.276652 44.4943 1.4286 44.4943 1.4286L38.3554 15.734H42.646L43.5043 13.4381H48.7376L49.2203 15.734H53.0001L49.7044 0.276652ZM44.6906 10.2661L46.8537 4.48162L48.0706 10.2661H44.6906Z" fill="white"/>
</g>
<path fill-rule="evenodd" clip-rule="evenodd" d="M8.67561 2.00735C8.67561 2.00735 8.50521 0.612305 6.68617 0.612305H0.0774108L0 0.874485C0 0.874485 3.1767 1.50753 6.22434 3.87927C9.13678 6.14608 10.0869 8.97176 10.0869 8.97176L8.67561 2.00735Z" fill="#F6AC1D"/>
</svg>
