<svg width="60" height="60" viewBox="0 0 60 60" fill="none" xmlns="http://www.w3.org/2000/svg">
<g clip-path="url(#clip0_81_2724)">
<path fill-rule="evenodd" clip-rule="evenodd" d="M30 0C46.5574 0 60 13.4426 60 30C60 46.5574 46.5574 60 30 60C13.4426 60 0 46.5574 0 30C0 13.4426 13.4426 0 30 0ZM44.2414 15.802C40.6501 12.2077 35.8741 10.2273 30.7857 10.2253C20.3012 10.2253 11.7681 18.7552 11.764 29.2397C11.7626 32.5911 12.6384 35.8627 14.303 38.7462L11.6044 48.6L21.6881 45.9558C24.4664 47.4707 27.5945 48.2689 30.7781 48.2704H30.786C41.2695 48.2704 49.8033 39.7395 49.8075 29.2548C49.8095 24.1738 47.8328 19.3962 44.2414 15.802ZM30.7859 45.0587H30.7795C27.9425 45.0575 25.16 44.2957 22.7326 42.8557L22.1552 42.5131L16.1715 44.0823L17.7687 38.25L17.3927 37.6521C15.8101 35.1357 14.9743 32.2271 14.9755 29.2409C14.979 20.5266 22.0714 13.4368 30.7922 13.4368C35.015 13.4385 38.9845 15.0847 41.9695 18.0721C44.9545 21.0595 46.5975 25.0305 46.5959 29.2536C46.5923 37.9685 39.5 45.0586 30.7859 45.0587ZM39.4581 33.2216C38.9828 32.9838 36.6461 31.8343 36.2102 31.6758C35.7746 31.5172 35.4579 31.4379 35.141 31.9136C34.8241 32.3892 33.9132 33.4595 33.636 33.7766C33.3588 34.0936 33.0816 34.1334 32.6062 33.8954C32.1309 33.6578 30.5995 33.156 28.7842 31.5371C27.3713 30.2774 26.4173 28.7213 26.1401 28.2457C25.8629 27.77 26.1105 27.5129 26.3486 27.276C26.5623 27.0632 26.8237 26.7211 27.0614 26.4436C27.2991 26.1661 27.3783 25.9679 27.5367 25.6509C27.6952 25.3337 27.6159 25.0563 27.4971 24.8184C27.3783 24.5807 26.4278 22.242 26.0317 21.2906C25.646 20.3641 25.2541 20.4895 24.9623 20.475C24.6854 20.4612 24.3683 20.4582 24.0514 20.4582C23.7346 20.4582 23.2198 20.5772 22.7839 21.0529C22.3484 21.5285 21.1206 22.678 21.1206 25.0166C21.1206 27.3553 22.8237 29.6146 23.0613 29.9318C23.299 30.2489 26.4128 35.0481 31.1805 37.1061C32.3145 37.5956 33.1998 37.888 33.89 38.107C35.0286 38.4686 36.0647 38.4176 36.8837 38.2952C37.7968 38.1588 39.6957 37.1457 40.0917 36.036C40.4877 34.9261 40.4877 33.9748 40.369 33.7766C40.2502 33.5784 39.9333 33.4595 39.4581 33.2216Z" fill="#12AC33"/>
</g>
<defs>
<clipPath id="clip0_81_2724">
<rect width="60" height="60" fill="white"/>
</clipPath>
</defs>
</svg>
