<svg width="25" height="25" viewBox="0 0 25 25" fill="none" xmlns="http://www.w3.org/2000/svg">
<path fill-rule="evenodd" clip-rule="evenodd" d="M12.5 0C19.3989 0 25 5.60107 25 12.5C25 19.3989 19.3989 25 12.5 25C5.60107 25 0 19.3989 0 12.5C0 5.60107 5.60107 0 12.5 0ZM18.4339 6.58418C16.9375 5.08652 14.9476 4.26138 12.8274 4.26055C8.45884 4.26055 4.90337 7.81465 4.90166 12.1832C4.90107 13.5796 5.26602 14.9428 5.95957 16.1442L4.83516 20.25L9.03672 19.1482C10.1943 19.7794 11.4977 20.1121 12.8242 20.1126H12.8275C17.1956 20.1126 20.7514 16.5581 20.7531 12.1895C20.754 10.0724 19.9303 8.08174 18.4339 6.58418ZM12.8274 18.7745H12.8248C11.6427 18.774 10.4833 18.4565 9.47192 17.8565L9.23135 17.7138L6.73813 18.3676L7.40361 15.9375L7.24697 15.6884C6.58755 14.6399 6.23931 13.428 6.23979 12.1837C6.24126 8.55273 9.19644 5.59868 12.8301 5.59868C14.5896 5.59937 16.2436 6.2853 17.4873 7.53003C18.7311 8.7748 19.4156 10.4294 19.4149 12.189C19.4135 15.8202 16.4583 18.7744 12.8274 18.7745ZM16.4409 13.8423C16.2428 13.7433 15.2692 13.2643 15.0876 13.1982C14.9061 13.1322 14.7741 13.0991 14.6421 13.2973C14.5101 13.4955 14.1305 13.9415 14.015 14.0736C13.8995 14.2057 13.784 14.2223 13.5859 14.1231C13.3879 14.0241 12.7498 13.815 11.9934 13.1405C11.4047 12.6156 11.0072 11.9672 10.8917 11.769C10.7762 11.5708 10.8794 11.4637 10.9786 11.365C11.0676 11.2763 11.1766 11.1338 11.2756 11.0182C11.3746 10.9025 11.4076 10.82 11.4736 10.6879C11.5396 10.5557 11.5066 10.4401 11.4571 10.341C11.4076 10.2419 11.0116 9.26748 10.8465 8.87109C10.6858 8.48506 10.5226 8.5373 10.401 8.53125C10.2856 8.52549 10.1535 8.52427 10.0214 8.52427C9.8894 8.52427 9.6749 8.57383 9.49331 8.77202C9.31182 8.97021 8.80024 9.44917 8.80024 10.4236C8.80024 11.398 9.50986 12.3394 9.60889 12.4716C9.70791 12.6037 11.0053 14.6034 12.9919 15.4609C13.4644 15.6648 13.8333 15.7867 14.1209 15.8779C14.5953 16.0286 15.027 16.0073 15.3682 15.9563C15.7487 15.8995 16.5399 15.4774 16.7049 15.015C16.8699 14.5525 16.8699 14.1562 16.8204 14.0736C16.7709 13.991 16.6389 13.9415 16.4409 13.8423Z" fill="#F9F9F9"/>
</svg>
